<?xml version="1.0" encoding="utf-8"?>
<!-- Generator: Adobe Illustrator 19.1.0, SVG Export Plug-In . SVG Version: 6.00 Build 0)  -->
<svg version="1.1" id="Layer_1" xmlns="http://www.w3.org/2000/svg" xmlns:xlink="http://www.w3.org/1999/xlink" x="0px" y="0px"
	 viewBox="0 0 119 149" style="enable-background:new 0 0 119 149;" xml:space="preserve">
<style type="text/css">
	.st0{fill:none;stroke:#1500A2;stroke-width:2;stroke-linecap:round;stroke-miterlimit:10;}
	.st1{fill:none;stroke:#1500A2;stroke-width:2;stroke-miterlimit:10;}
	.st2{fill:none;stroke:#1500A2;stroke-width:2;stroke-linecap:round;stroke-miterlimit:10;stroke-dasharray:2,4,2,4,2,4;}
	.st3{fill:none;stroke:#1500A2;stroke-width:2;stroke-linecap:round;stroke-linejoin:round;stroke-miterlimit:10;}
	.st4{fill:#1500A2;}
</style>
<g>
	<path class="st4" d="M0,149h119V0H0V149z M113.991,4C114.102,5,114,5.165,115,5.359v1.24c0-0.128-0.406-0.241-0.569-0.325
		c-0.737-0.378-1.718-0.089-2.097,0.647L111.381,8.7c-0.379,0.737-0.108,1.642,0.628,2.021c0.22,0.113,0.445,0.166,0.676,0.166
		c0.544,0,1.217-0.297,1.483-0.813L115,8.743v135.79c0,0.073-0.502,0.004-0.649,0.15c-0.146,0.146-0.396,0.317-0.469,0.317H5.688
		c0.175,0,0.167-0.94-0.249-1.357C5.022,143.227,4,143.3,4,143.475V8.743l0.416,0.998c0.266,0.517,0.742,0.813,1.287,0.813
		c0.231,0,0.441-0.054,0.661-0.166C7.1,10.01,7.377,9.105,6.999,8.368L6.077,6.59C5.698,5.854,4.889,5.565,4.151,5.942
		C4.063,5.988,4,6.042,4,6.102V4.895C4,4.782,4.075,5,4.169,4H113.991z"/>
	<path class="st4" d="M70.238,49.5c0,0.828,0.671,1.5,1.5,1.5h1.626c0.829,0,1.5-0.672,1.5-1.5s-0.671-1.5-1.5-1.5h-1.626
		C70.91,48,70.238,48.672,70.238,49.5z"/>
	<path class="st4" d="M77.365,51h2c0.829,0,1.5-0.672,1.5-1.5s-0.671-1.5-1.5-1.5h-2c-0.829,0-1.5,0.672-1.5,1.5
		S76.536,51,77.365,51z"/>
	<path class="st4" d="M83.365,51h2c0.829,0,1.5-0.672,1.5-1.5s-0.671-1.5-1.5-1.5h-2c-0.829,0-1.5,0.672-1.5,1.5
		S82.536,51,83.365,51z"/>
	<path class="st4" d="M101.008,32.061c0.22,0.112,0.454,0.166,0.685,0.166c0.544,0,1.069-0.297,1.335-0.813l0.915-1.778
		c0.379-0.737,0.089-1.642-0.647-2.021c-0.738-0.377-1.641-0.088-2.021,0.647l-0.915,1.778
		C99.981,30.777,100.271,31.682,101.008,32.061z"/>
	<path class="st4" d="M106.499,21.391c0.22,0.112,0.454,0.166,0.685,0.166c0.544,0,1.069-0.297,1.335-0.813l0.915-1.778
		c0.379-0.737,0.089-1.642-0.647-2.021c-0.738-0.381-1.641-0.088-2.021,0.647l-0.915,1.778
		C105.473,20.107,105.763,21.012,106.499,21.391z"/>
	<path class="st4" d="M103.753,26.726c0.22,0.112,0.454,0.166,0.685,0.166c0.544,0,1.069-0.297,1.335-0.813l0.915-1.778
		c0.379-0.737,0.089-1.642-0.647-2.021c-0.738-0.38-1.641-0.088-2.021,0.647l-0.915,1.778
		C102.727,25.442,103.017,26.347,103.753,26.726z"/>
	<path class="st4" d="M109.245,16.056c0.22,0.112,0.454,0.166,0.685,0.166c0.544,0,1.069-0.297,1.335-0.813l0.915-1.778
		c0.379-0.737,0.089-1.642-0.647-2.021c-0.737-0.377-1.641-0.089-2.021,0.647l-0.915,1.778
		C108.218,14.772,108.508,15.677,109.245,16.056z"/>
	<path class="st4" d="M92.771,48.065c0.22,0.112,0.454,0.166,0.685,0.166c0.544,0,1.069-0.297,1.335-0.813l0.915-1.778
		c0.379-0.737,0.089-1.642-0.647-2.021c-0.737-0.377-1.642-0.088-2.021,0.647l-0.915,1.778
		C91.745,46.782,92.035,47.687,92.771,48.065z"/>
	<path class="st4" d="M98.262,37.396c0.22,0.112,0.454,0.166,0.685,0.166c0.544,0,1.069-0.297,1.335-0.813l0.915-1.778
		c0.379-0.737,0.089-1.642-0.647-2.021c-0.738-0.378-1.642-0.089-2.021,0.647l-0.915,1.778
		C97.236,36.112,97.526,37.017,98.262,37.396z"/>
	<path class="st4" d="M95.517,42.73c0.22,0.112,0.454,0.166,0.685,0.166c0.544,0,1.069-0.297,1.335-0.813l0.915-1.778
		c0.379-0.737,0.089-1.642-0.647-2.021c-0.737-0.377-1.642-0.089-2.021,0.647l-0.915,1.778C94.49,41.447,94.78,42.352,95.517,42.73z
		"/>
	<path class="st4" d="M89.365,51h2c0.829,0,1.5-0.672,1.5-1.5s-0.671-1.5-1.5-1.5h-2c-0.829,0-1.5,0.672-1.5,1.5
		S88.536,51,89.365,51z"/>
	<path class="st4" d="M38.762,51h2c0.829,0,1.5-0.672,1.5-1.5s-0.671-1.5-1.5-1.5h-2c-0.829,0-1.5,0.672-1.5,1.5
		S37.933,51,38.762,51z"/>
	<path class="st4" d="M32.762,51h2c0.829,0,1.5-0.672,1.5-1.5s-0.671-1.5-1.5-1.5h-2c-0.829,0-1.5,0.672-1.5,1.5
		S31.933,51,32.762,51z"/>
	<path class="st4" d="M44.762,51h2c0.829,0,1.5-0.672,1.5-1.5s-0.671-1.5-1.5-1.5h-2c-0.829,0-1.5,0.672-1.5,1.5
		S43.933,51,44.762,51z"/>
	<path class="st4" d="M25.422,49.012c-0.363,0.745-0.053,1.53,0.692,1.893C26.393,51.041,26.706,51,27.017,51h1.745
		c0.829,0,1.5-0.672,1.5-1.5s-0.671-1.5-1.5-1.5H27.18C26.496,48,25.746,48.348,25.422,49.012z"/>
	<path class="st4" d="M14.386,29.303l0.915,1.778c0.266,0.517,0.791,0.813,1.335,0.813c0.231,0,0.465-0.054,0.685-0.166
		c0.736-0.379,1.026-1.283,0.647-2.021l-0.915-1.778c-0.379-0.735-1.282-1.025-2.021-0.647
		C14.297,27.661,14.007,28.565,14.386,29.303z"/>
	<path class="st4" d="M11.64,23.968l0.915,1.778c0.266,0.517,0.791,0.813,1.335,0.813c0.231,0,0.465-0.054,0.685-0.166
		c0.736-0.379,1.026-1.283,0.647-2.021l-0.915-1.778c-0.379-0.735-1.283-1.024-2.021-0.647C11.551,22.326,11.261,23.23,11.64,23.968
		z"/>
	<path class="st4" d="M8.895,18.633l0.915,1.778c0.266,0.517,0.791,0.813,1.335,0.813c0.231,0,0.465-0.054,0.685-0.166
		c0.736-0.379,1.026-1.283,0.647-2.021l-0.915-1.778c-0.378-0.736-1.283-1.024-2.021-0.647C8.806,16.991,8.516,17.896,8.895,18.633z
		"/>
	<path class="st4" d="M17.131,34.638l0.915,1.778c0.266,0.517,0.791,0.813,1.335,0.813c0.231,0,0.465-0.054,0.685-0.166
		c0.736-0.379,1.026-1.283,0.647-2.021l-0.915-1.778c-0.379-0.736-1.282-1.024-2.021-0.647C17.042,32.996,16.752,33.9,17.131,34.638
		z"/>
	<path class="st4" d="M6.149,13.298l0.915,1.778c0.266,0.517,0.791,0.813,1.335,0.813c0.231,0,0.465-0.054,0.685-0.166
		c0.736-0.379,1.026-1.283,0.647-2.021l-0.915-1.778c-0.378-0.735-1.283-1.025-2.021-0.647C6.06,11.656,5.77,12.561,6.149,13.298z"
		/>
	<path class="st4" d="M19.877,39.973l0.915,1.778c0.266,0.517,0.791,0.813,1.335,0.813c0.231,0,0.465-0.054,0.685-0.166
		c0.736-0.379,1.026-1.283,0.647-2.021L22.545,38.6c-0.379-0.735-1.284-1.025-2.021-0.647
		C19.788,38.331,19.498,39.235,19.877,39.973z"/>
	<path class="st4" d="M22.623,45.308l0.915,1.778c0.266,0.517,0.791,0.813,1.335,0.813c0.231,0,0.465-0.054,0.685-0.166
		c0.736-0.379,1.026-1.283,0.647-2.021l-0.915-1.778c-0.379-0.736-1.283-1.024-2.021-0.647
		C22.534,43.666,22.244,44.57,22.623,45.308z"/>
	<path class="st4" d="M100.763,129.306l-1.414-1.414c-0.586-0.586-1.535-0.586-2.121,0s-0.586,1.535,0,2.121l1.414,1.414
		c0.293,0.293,0.677,0.439,1.061,0.439s0.768-0.146,1.061-0.439C101.349,130.841,101.349,129.892,100.763,129.306z"/>
	<path class="st4" d="M96.521,125.063l-1.414-1.414c-0.586-0.586-1.535-0.586-2.121,0s-0.586,1.535,0,2.121l1.414,1.414
		c0.293,0.293,0.677,0.439,1.061,0.439s0.768-0.146,1.061-0.439C97.106,126.599,97.106,125.649,96.521,125.063z"/>
	<path class="st4" d="M72.985,121h-2c-0.829,0-1.5,0.672-1.5,1.5s0.671,1.5,1.5,1.5h2c0.829,0,1.5-0.672,1.5-1.5
		S73.814,121,72.985,121z"/>
	<path class="st4" d="M109.957,140.619c-0.586,0.585-0.586,1.535-0.001,2.121l1.414,1.415c0.293,0.293,0.677,0.439,1.061,0.439
		c0.384,0,0.768-0.146,1.06-0.439c0.586-0.585,0.586-1.535,0.001-2.121l-1.414-1.415
		C111.492,140.034,110.542,140.032,109.957,140.619z"/>
	<path class="st4" d="M109.249,137.791l-1.414-1.414c-0.586-0.586-1.535-0.586-2.121,0s-0.586,1.535,0,2.121l1.414,1.414
		c0.293,0.293,0.677,0.439,1.061,0.439s0.768-0.146,1.061-0.439C109.834,139.326,109.834,138.377,109.249,137.791z"/>
	<path class="st4" d="M105.006,133.549l-1.414-1.414c-0.586-0.586-1.535-0.586-2.121,0s-0.586,1.535,0,2.121l1.414,1.414
		c0.293,0.293,0.677,0.439,1.061,0.439s0.768-0.146,1.061-0.439C105.592,135.084,105.592,134.135,105.006,133.549z"/>
	<path class="st4" d="M66.985,121h-2c-0.829,0-1.5,0.672-1.5,1.5s0.671,1.5,1.5,1.5h2c0.829,0,1.5-0.672,1.5-1.5
		S67.814,121,66.985,121z"/>
	<path class="st4" d="M24.433,122.609l-1.414,1.414c-0.586,0.586-0.586,1.535,0,2.121c0.293,0.293,0.677,0.439,1.061,0.439
		s0.768-0.146,1.061-0.439l1.414-1.414c0.586-0.586,0.586-1.535,0-2.121S25.019,122.023,24.433,122.609z"/>
	<path class="st4" d="M20.191,126.852l-1.415,1.414c-0.586,0.585-0.586,1.535,0,2.121c0.293,0.293,0.677,0.439,1.061,0.439
		s0.768-0.146,1.061-0.439l1.415-1.414c0.586-0.585,0.586-1.535,0-2.121C21.727,126.266,20.777,126.266,20.191,126.852z"/>
	<path class="st4" d="M48.985,121h-2c-0.829,0-1.5,0.672-1.5,1.5s0.671,1.5,1.5,1.5h2c0.829,0,1.5-0.672,1.5-1.5
		S49.814,121,48.985,121z"/>
	<path class="st4" d="M60.985,121h-2c-0.829,0-1.5,0.672-1.5,1.5s0.671,1.5,1.5,1.5h2c0.829,0,1.5-0.672,1.5-1.5
		S61.814,121,60.985,121z"/>
	<path class="st4" d="M54.985,121h-2c-0.829,0-1.5,0.672-1.5,1.5s0.671,1.5,1.5,1.5h2c0.829,0,1.5-0.672,1.5-1.5
		S55.814,121,54.985,121z"/>
	<path class="st4" d="M11.706,135.337l-1.415,1.414c-0.586,0.585-0.586,1.535,0,2.121c0.293,0.293,0.677,0.439,1.061,0.439
		s0.768-0.146,1.061-0.439l1.415-1.414c0.586-0.585,0.586-1.535,0-2.121C13.241,134.751,12.292,134.751,11.706,135.337z"/>
	<path class="st4" d="M7.463,139.58l-1.415,1.414c-0.586,0.585-0.586,1.535,0,2.121c0.293,0.293,0.677,0.439,1.061,0.439
		s0.768-0.146,1.061-0.439l1.415-1.414c0.586-0.585,0.586-1.535,0-2.121C8.999,138.994,8.049,138.994,7.463,139.58z"/>
	<path class="st4" d="M82.985,124h2c0.829,0,1.5-0.672,1.5-1.5s-0.671-1.5-1.5-1.5h-2c-0.829,0-1.5,0.672-1.5,1.5
		S82.157,124,82.985,124z"/>
	<path class="st4" d="M88.985,124h2c0.829,0,1.5-0.672,1.5-1.5s-0.671-1.5-1.5-1.5h-2c-0.829,0-1.5,0.672-1.5,1.5
		S88.157,124,88.985,124z"/>
	<path class="st4" d="M39.485,122.5c0,0.828,0.671,1.5,1.5,1.5h2c0.829,0,1.5-0.672,1.5-1.5s-0.671-1.5-1.5-1.5h-2
		C40.157,121,39.485,121.672,39.485,122.5z"/>
	<path class="st4" d="M15.948,131.095l-1.415,1.414c-0.586,0.585-0.586,1.535,0,2.121c0.293,0.293,0.677,0.439,1.061,0.439
		s0.768-0.146,1.061-0.439l1.415-1.414c0.586-0.585,0.586-1.535,0-2.121C17.484,130.509,16.534,130.509,15.948,131.095z"/>
	<path class="st4" d="M76.985,124h2c0.829,0,1.5-0.672,1.5-1.5s-0.671-1.5-1.5-1.5h-2c-0.829,0-1.5,0.672-1.5,1.5
		S76.157,124,76.985,124z"/>
	<path class="st4" d="M27.485,122.5c0,0.828,0.671,1.5,1.5,1.5h2c0.829,0,1.5-0.672,1.5-1.5s-0.671-1.5-1.5-1.5h-2
		C28.157,121,27.485,121.672,27.485,122.5z"/>
	<path class="st4" d="M33.485,122.5c0,0.828,0.671,1.5,1.5,1.5h2c0.829,0,1.5-0.672,1.5-1.5s-0.671-1.5-1.5-1.5h-2
		C34.157,121,33.485,121.672,33.485,122.5z"/>
	<path class="st4" d="M50.042,40.99l6.875,11.459l-6.875,11.459c-0.551,0.918-0.274,2.095,0.606,2.685
		c-2.093,2.16-3.389,5.097-3.389,8.335c0,6.611,5.379,11.99,11.99,11.99s11.99-5.379,11.99-11.99c0-3.238-1.296-6.175-3.389-8.335
		c0.88-0.589,1.157-1.766,0.606-2.685l-6.875-11.459l6.875-11.459c0.551-0.918,0.274-2.095-0.606-2.685
		c2.093-2.16,3.389-5.097,3.389-8.335c0-6.611-5.379-11.99-11.99-11.99s-11.99,5.379-11.99,11.99c0,3.238,1.296,6.175,3.389,8.335
		C49.769,38.895,49.492,40.072,50.042,40.99z M59.25,82.918c-4.406,0-7.99-3.584-7.99-7.99s3.584-7.99,7.99-7.99
		s7.99,3.584,7.99,7.99S63.656,82.918,59.25,82.918z M63.738,63.817c-1.388-0.563-2.901-0.88-4.488-0.88s-3.1,0.317-4.488,0.88
		l4.488-7.481L63.738,63.817z M54.762,41.081c1.388,0.563,2.901,0.88,4.488,0.88c1.587,0,3.1-0.317,4.488-0.88l-4.488,7.481
		L54.762,41.081z M59.25,21.98c4.406,0,7.99,3.584,7.99,7.99s-3.584,7.99-7.99,7.99s-7.99-3.584-7.99-7.99S54.844,21.98,59.25,21.98
		z"/>
</g>
</svg>
