<?xml version="1.0" encoding="utf-8"?>
<!-- Generator: Adobe Illustrator 19.1.0, SVG Export Plug-In . SVG Version: 6.00 Build 0)  -->
<svg version="1.1" id="Layer_1" xmlns="http://www.w3.org/2000/svg" xmlns:xlink="http://www.w3.org/1999/xlink" x="0px" y="0px"
	 viewBox="0 0 149 151" style="enable-background:new 0 0 149 151;" xml:space="preserve">
<style type="text/css">
	.st0{fill:none;stroke:#1500A2;stroke-width:2;stroke-linecap:round;stroke-miterlimit:10;}
	.st1{fill:none;stroke:#1500A2;stroke-width:2;stroke-miterlimit:10;}
	.st2{fill:none;stroke:#1500A2;stroke-width:2;stroke-linecap:round;stroke-miterlimit:10;stroke-dasharray:2,4,2,4,2,4;}
	.st3{fill:none;stroke:#1500A2;stroke-width:2;stroke-linecap:round;stroke-linejoin:round;stroke-miterlimit:10;}
	.st4{fill:#1500A2;}
</style>
<g>
	<path class="st4" d="M112.278,89H32.354c-1.104,0-2,0.896-2,2s0.896,2,2,2h79.924c1.104,0,2-0.896,2-2S113.383,89,112.278,89z"/>
	<path class="st4" d="M112.278,104H32.354c-1.104,0-2,0.896-2,2s0.896,2,2,2h79.924c1.104,0,2-0.896,2-2S113.383,104,112.278,104z"
		/>
	<path class="st4" d="M32.354,78h22.479c1.104,0,2-0.896,2-2s-0.896-2-2-2H32.354c-1.104,0-2,0.896-2,2S31.25,78,32.354,78z"/>
	<path class="st4" d="M74.814,78h7.493c1.104,0,2-0.896,2-2s-0.896-2-2-2h-7.493c-1.104,0-2,0.896-2,2S73.709,78,74.814,78z"/>
	<path class="st4" d="M64.82,78.5c0.53,0,1.04-0.22,1.42-0.59c0.37-0.37,0.58-0.891,0.58-1.41c0-0.53-0.21-1.04-0.58-1.42
		c-0.74-0.74-2.08-0.74-2.83,0c-0.37,0.38-0.59,0.89-0.59,1.42c0,0.52,0.22,1.04,0.59,1.41C63.78,78.28,64.3,78.5,64.82,78.5z"/>
	<path class="st4" d="M137,138V45H13v93H137z M17,49h116v85H17V49z"/>
	<path class="st4" d="M17.369,9.56c-5.234,0-9.493,4.259-9.493,9.493s4.258,9.492,9.493,9.492s9.493-4.258,9.493-9.492
		S22.603,9.56,17.369,9.56z M17.369,24.545c-3.029,0-5.493-2.464-5.493-5.492c0-3.029,2.464-5.493,5.493-5.493
		s5.493,2.464,5.493,5.493C22.861,22.081,20.397,24.545,17.369,24.545z"/>
	<path class="st4" d="M39.847,9.56c-5.234,0-9.493,4.259-9.493,9.493s4.258,9.492,9.493,9.492s9.493-4.258,9.493-9.492
		S45.082,9.56,39.847,9.56z M39.847,24.545c-3.029,0-5.493-2.464-5.493-5.492c0-3.029,2.464-5.493,5.493-5.493
		s5.493,2.464,5.493,5.493C45.34,22.081,42.876,24.545,39.847,24.545z"/>
	<path class="st4" d="M62.326,9.56c-5.234,0-9.493,4.259-9.493,9.493s4.258,9.492,9.493,9.492s9.493-4.258,9.493-9.492
		S67.56,9.56,62.326,9.56z M62.326,24.545c-3.029,0-5.493-2.464-5.493-5.492c0-3.029,2.464-5.493,5.493-5.493
		s5.493,2.464,5.493,5.493C67.818,22.081,65.354,24.545,62.326,24.545z"/>
	<path class="st4" d="M0,36.038V151h149V36.038V2H0V36.038z M145,147H4V36h141V147z M4,6h141v26H4V6z"/>
</g>
</svg>
