<?xml version="1.0" encoding="utf-8"?>
<!-- Generator: Adobe Illustrator 19.1.0, SVG Export Plug-In . SVG Version: 6.00 Build 0)  -->
<svg version="1.1" id="Layer_1" xmlns="http://www.w3.org/2000/svg" xmlns:xlink="http://www.w3.org/1999/xlink" x="0px" y="0px"
	 viewBox="0 0 133.938 147" style="enable-background:new 0 0 133.938 147;" xml:space="preserve">
<style type="text/css">
	.st0{fill:none;stroke:#1500A2;stroke-width:2;stroke-linecap:round;stroke-miterlimit:10;}
	.st1{fill:none;stroke:#1500A2;stroke-width:2;stroke-miterlimit:10;}
	.st2{fill:none;stroke:#1500A2;stroke-width:2;stroke-linecap:round;stroke-miterlimit:10;stroke-dasharray:2,4,2,4,2,4;}
	.st3{fill:none;stroke:#1500A2;stroke-width:2;stroke-linecap:round;stroke-linejoin:round;stroke-miterlimit:10;}
	.st4{fill:#1500A2;}
</style>
<g>
	<path class="st4" d="M133.938,120.957v-4V11.315c0-5.1-4.211-9.315-9.311-9.315H19.239c-5.1,0-9.302,4.216-9.302,9.315v23.388
		c0,0.013-0.121,0.034-0.195,0.048c-0.158,0.03-0.301,0.065-0.457,0.101c-0.215,0.05-0.421,0.104-0.632,0.164
		c-0.152,0.044-0.299,0.09-0.448,0.14c-0.209,0.07-0.414,0.146-0.617,0.227c-0.142,0.056-0.284,0.113-0.423,0.174
		c-0.207,0.092-0.409,0.192-0.61,0.295c-0.127,0.065-0.256,0.128-0.381,0.197c-0.214,0.119-0.42,0.249-0.625,0.38
		c-0.104,0.066-0.211,0.128-0.312,0.198c-0.261,0.179-0.513,0.37-0.759,0.568c-0.039,0.031-0.08,0.058-0.118,0.09
		c-0.284,0.235-0.556,0.483-0.817,0.743c-0.066,0.066-0.126,0.138-0.191,0.205c-0.188,0.196-0.374,0.395-0.549,0.604
		c-0.084,0.101-0.162,0.207-0.243,0.31c-0.145,0.185-0.288,0.37-0.422,0.563c-0.083,0.119-0.16,0.243-0.238,0.365
		c-0.12,0.188-0.237,0.377-0.347,0.571c-0.074,0.132-0.144,0.265-0.214,0.4c-0.101,0.195-0.196,0.392-0.286,0.593
		c-0.063,0.14-0.124,0.281-0.181,0.424c-0.083,0.205-0.158,0.414-0.229,0.625c-0.049,0.145-0.099,0.289-0.142,0.436
		c-0.065,0.22-0.12,0.445-0.173,0.67c-0.034,0.144-0.071,0.285-0.099,0.431c-0.049,0.25-0.083,0.504-0.116,0.758
		c-0.016,0.126-0.039,0.25-0.052,0.377C0.022,45.745,0,46.133,0,46.526c0,0.391,0.025,0.78,0.064,1.166
		c0.012,0.121,0.031,0.24,0.047,0.361c0.035,0.268,0.078,0.535,0.132,0.8c0.027,0.132,0.056,0.264,0.087,0.395
		c0.063,0.264,0.136,0.524,0.217,0.783c0.036,0.113,0.067,0.228,0.106,0.34c0.126,0.364,0.265,0.722,0.425,1.073
		c0.008,0.018,0.018,0.035,0.027,0.052c0.154,0.333,0.326,0.657,0.511,0.975c0.061,0.105,0.128,0.207,0.193,0.311
		c0.143,0.23,0.293,0.456,0.452,0.677c0.079,0.109,0.159,0.218,0.241,0.325c0.054,0.07,0.103,0.144,0.159,0.214
		c-1.035,1.282-1.802,2.782-2.24,4.417c-0.019,0.069-0.036,0.138-0.053,0.208c-0.061,0.246-0.118,0.493-0.164,0.745
		c-0.03,0.162-0.052,0.326-0.075,0.49c-0.025,0.182-0.055,0.362-0.072,0.547C0.021,60.771,0,61.14,0,61.512
		c0,0.391,0.025,0.78,0.064,1.166c0.012,0.121,0.031,0.24,0.047,0.361c0.035,0.268,0.078,0.535,0.132,0.799
		c0.027,0.133,0.056,0.264,0.087,0.396c0.063,0.263,0.136,0.522,0.216,0.78c0.036,0.115,0.068,0.23,0.107,0.344
		c0.125,0.362,0.264,0.72,0.424,1.069c0.011,0.023,0.024,0.046,0.035,0.069c0.152,0.326,0.32,0.644,0.501,0.956
		c0.063,0.109,0.133,0.215,0.2,0.322c0.141,0.226,0.287,0.447,0.443,0.664c0.081,0.113,0.163,0.224,0.249,0.334
		c0.053,0.069,0.101,0.141,0.155,0.209c-1.035,1.282-1.802,2.783-2.241,4.419c-0.018,0.068-0.035,0.136-0.052,0.204
		c-0.062,0.247-0.119,0.495-0.165,0.748c-0.03,0.162-0.051,0.325-0.075,0.488c-0.025,0.183-0.055,0.364-0.072,0.549
		C0.021,75.757,0,76.126,0,76.498c0,0.391,0.025,0.78,0.064,1.166c0.012,0.122,0.032,0.242,0.048,0.362
		c0.035,0.268,0.078,0.533,0.131,0.797c0.027,0.133,0.056,0.266,0.088,0.398c0.062,0.262,0.135,0.52,0.216,0.777
		c0.036,0.116,0.068,0.232,0.108,0.346c0.125,0.362,0.264,0.719,0.423,1.068c0.011,0.024,0.025,0.047,0.036,0.071
		c0.152,0.326,0.32,0.643,0.501,0.955c0.063,0.109,0.132,0.214,0.199,0.321c0.141,0.226,0.288,0.448,0.444,0.665
		c0.081,0.113,0.164,0.225,0.249,0.335c0.053,0.069,0.101,0.141,0.155,0.209c-1.035,1.282-1.802,2.782-2.241,4.417
		c-0.019,0.069-0.036,0.139-0.054,0.208c-0.061,0.246-0.118,0.493-0.164,0.745c-0.03,0.162-0.052,0.326-0.075,0.49
		c-0.025,0.182-0.055,0.362-0.072,0.547C0.021,90.742,0,91.112,0,91.483c0,0.393,0.022,0.782,0.059,1.166
		c0.012,0.127,0.035,0.251,0.052,0.377c0.033,0.255,0.067,0.509,0.116,0.758c0.028,0.146,0.066,0.287,0.099,0.431
		c0.053,0.225,0.107,0.45,0.173,0.67c0.044,0.147,0.093,0.291,0.142,0.435c0.072,0.211,0.147,0.42,0.229,0.626
		c0.057,0.143,0.118,0.283,0.181,0.423c0.09,0.201,0.186,0.399,0.286,0.594c0.069,0.134,0.14,0.268,0.214,0.399
		c0.11,0.194,0.227,0.383,0.347,0.571c0.079,0.123,0.155,0.246,0.238,0.365c0.134,0.193,0.277,0.379,0.422,0.563
		c0.081,0.104,0.158,0.21,0.243,0.31c0.175,0.209,0.36,0.407,0.549,0.604c0.065,0.068,0.125,0.139,0.191,0.205
		c0.261,0.26,0.533,0.508,0.817,0.743c0.038,0.032,0.08,0.059,0.118,0.09c0.246,0.198,0.498,0.389,0.759,0.568
		c0.102,0.07,0.208,0.131,0.312,0.198c0.206,0.132,0.412,0.261,0.625,0.38c0.125,0.069,0.253,0.132,0.381,0.197
		c0.201,0.103,0.404,0.203,0.612,0.295c0.139,0.061,0.281,0.117,0.422,0.173c0.204,0.081,0.411,0.158,0.62,0.228
		c0.149,0.05,0.299,0.096,0.451,0.14c0.21,0.061,0.423,0.115,0.638,0.164c0.156,0.036,0.285,0.071,0.444,0.101
		c0.075,0.014,0.195,0.035,0.195,0.048v20.65v7.488v7.488c0,3.859,3.193,7.066,7.053,7.066h116.947V120.957z M19.239,6h105.388
		c2.894,0,5.311,2.421,5.311,5.315V117H24.479H16.99c-1.074,0-2.053,0.208-3.053,0.642v-16.169v-2V93.98c0-1.104-0.896-2-2-2
		s-2,0.896-2,2v5.23c-3-0.891-5.964-4.012-5.964-7.727c0-2.271,1.02-4.453,2.775-5.987c0.781-0.683,1.966-1.463,3.524-1.814
		c0.007-0.002,0.017-0.004,0.024-0.005c0.204-0.045,0.421-0.077,0.638-0.106c0.067-0.009,0.133-0.023,0.201-0.031
		c0.275-0.03,0.56-0.047,0.855-0.047s0.58,0.017,0.855,0.047c0.066,0.007,0.13,0.021,0.196,0.03c0.219,0.03,0.436,0.061,0.641,0.107
		c0.005,0.001,0.009,0.002,0.013,0.003c1.561,0.35,2.742,1.132,3.524,1.815c0.065,0.057,0.137,0.1,0.207,0.147
		c1.567,1.46,2.554,3.534,2.554,5.84c0,1.104,0.896,2,2,2s2-0.896,2-2c0-5.869-4.241-10.757-9.818-11.783
		c-0.104-0.02-0.209-0.031-0.314-0.048c-0.244-0.038-0.488-0.079-0.736-0.102c-0.372-0.036-0.747-0.057-1.122-0.057
		c-0.351,0-0.7,0.022-1.047,0.053c-0.135,0.012-0.269,0.027-0.403,0.044c-0.186,0.023-0.37,0.053-0.555,0.085
		c-1.563,0.265-3.021,0.831-4.318,1.64c-0.007-0.01-0.016-0.018-0.024-0.028c-0.232-0.304-0.438-0.624-0.624-0.954
		c-0.044-0.078-0.083-0.157-0.125-0.237c-0.162-0.312-0.307-0.632-0.426-0.962c-0.013-0.037-0.031-0.072-0.044-0.109
		c-0.124-0.359-0.214-0.729-0.284-1.103c-0.017-0.089-0.031-0.178-0.044-0.267C4.04,77.273,4,76.888,4,76.498
		c0-0.282,0.016-0.562,0.045-0.838c0.007-0.068,0.022-0.134,0.031-0.201c0.028-0.21,0.057-0.42,0.102-0.626
		c0.011-0.05,0.026-0.098,0.038-0.148c0.054-0.228,0.113-0.454,0.187-0.675c0.004-0.011,0.008-0.022,0.012-0.033
		c0.446-1.312,1.241-2.499,2.348-3.466l0.018-0.016c0.781-0.679,1.952-1.451,3.5-1.799c0.007-0.001,0.013-0.004,0.02-0.005
		c0.203-0.045,0.419-0.076,0.635-0.106c0.068-0.009,0.134-0.024,0.202-0.031c0.275-0.03,0.559-0.047,0.854-0.047
		c0.295,0,0.579,0.017,0.854,0.047c0.067,0.007,0.131,0.021,0.198,0.03c0.218,0.03,0.435,0.061,0.64,0.107
		c0.004,0.001,0.007,0.002,0.011,0.003c1.562,0.35,2.743,1.133,3.526,1.817c0.066,0.057,0.138,0.101,0.208,0.148
		c1.567,1.46,2.553,3.534,2.553,5.839c0,1.104,0.896,2,2,2s2-0.896,2-2c0-5.869-4.241-10.758-9.817-11.784
		c-0.104-0.02-0.21-0.031-0.315-0.048c-0.244-0.038-0.487-0.079-0.735-0.102c-0.372-0.036-0.747-0.057-1.123-0.057
		c-0.35,0-0.699,0.022-1.046,0.053c-0.136,0.012-0.271,0.028-0.406,0.044c-0.183,0.023-0.366,0.052-0.547,0.084
		c-1.565,0.264-3.026,0.831-4.323,1.641c-0.007-0.008-0.014-0.016-0.021-0.025c-0.234-0.305-0.44-0.626-0.626-0.958
		c-0.044-0.078-0.083-0.157-0.124-0.236c-0.161-0.311-0.305-0.63-0.424-0.958c-0.014-0.039-0.032-0.075-0.045-0.114
		c-0.123-0.359-0.214-0.728-0.284-1.101c-0.017-0.089-0.031-0.179-0.045-0.269C4.04,62.286,4,61.901,4,61.512
		c0-2.271,1.007-4.452,2.762-5.986l0.018-0.015c0.781-0.679,1.954-1.452,3.503-1.8c0.005-0.001,0.01-0.003,0.016-0.004
		c0.204-0.045,0.42-0.077,0.637-0.106c0.067-0.009,0.133-0.023,0.2-0.031c0.275-0.03,0.559-0.047,0.854-0.047
		c0.295,0,0.579,0.017,0.854,0.047c0.066,0.007,0.13,0.021,0.196,0.03c0.219,0.03,0.436,0.061,0.642,0.107
		c0.002,0,0.005,0.001,0.007,0.002c1.564,0.35,2.745,1.133,3.529,1.818c0.066,0.058,0.139,0.102,0.211,0.15
		c1.565,1.46,2.551,3.533,2.551,5.837c0,1.104,0.896,2,2,2s2-0.896,2-2c0-5.868-4.241-10.757-9.817-11.783
		c-0.104-0.02-0.21-0.031-0.315-0.048c-0.244-0.038-0.487-0.079-0.735-0.102c-0.372-0.036-0.747-0.057-1.123-0.057
		c-0.35,0-0.699,0.022-1.046,0.053c-0.136,0.012-0.271,0.028-0.407,0.044c-0.183,0.023-0.365,0.052-0.547,0.084
		c-1.567,0.265-3.029,0.832-4.328,1.644c-0.007-0.009-0.015-0.017-0.021-0.026c-0.237-0.306-0.446-0.628-0.633-0.96
		c-0.041-0.073-0.078-0.147-0.116-0.22c-0.164-0.314-0.31-0.636-0.429-0.969c-0.013-0.035-0.029-0.069-0.042-0.104
		c-0.123-0.359-0.213-0.73-0.282-1.106c-0.016-0.088-0.03-0.176-0.043-0.265C4.039,47.311,4,46.923,4,46.526
		c0-4.406,3.584-7.99,7.99-7.99s7.99,3.584,7.99,7.99c0,1.104,0.896,2,2,2s1.974-0.896,1.974-2c0-5.929-4.017-10.853-10.017-11.81
		V11.315C13.938,8.421,16.345,6,19.239,6z M16.99,142c-1.654,0-3.053-1.412-3.053-3.066v-7.488c0-5.783,4.758-10.445,10.541-10.445
		h105.459v3h-8.053c-1.104,0-2,0.896-2,2s0.896,2,2,2h8.053v6h-8.053c-1.104,0-2,0.896-2,2s0.896,2,2,2h8.053v4H16.99z"/>
	<path class="st4" d="M34.469,129H21.98c-1.104,0-2,0.896-2,2s0.896,2,2,2h12.488c1.104,0,2-0.896,2-2S35.573,129,34.469,129z"/>
	<path class="st4" d="M114.393,129H44.459c-1.104,0-2,0.896-2,2s0.896,2,2,2h69.934c1.104,0,2-0.896,2-2S115.497,129,114.393,129z"
		/>
</g>
</svg>
