<?xml version="1.0" encoding="utf-8"?>
<!-- Generator: Adobe Illustrator 19.1.0, SVG Export Plug-In . SVG Version: 6.00 Build 0)  -->
<svg version="1.1" xmlns="http://www.w3.org/2000/svg" xmlns:xlink="http://www.w3.org/1999/xlink" x="0px" y="0px"
	 viewBox="0 0 419.528 595.28" style="enable-background:new 0 0 419.528 595.28;" xml:space="preserve">
<style type="text/css">
	.st0{fill:#093D88;}
	.st1{fill:none;}
	.st2{font-family:'ApercuPro-Medium';}
	.st3{font-size:15px;}
	.st4{fill:none;stroke:#093D88;stroke-width:5;stroke-miterlimit:10;}
	.st5{fill:#FFFFFF;}
	.st6{fill:#F1F2F2;}
	.st7{font-size:51.6984px;}
	.st8{fill:none;stroke:#FFFFFF;stroke-linecap:round;stroke-miterlimit:10;}
</style>
<g id="Layer_2">
</g>
<g id="Layer_1">
	<path class="st0" d="M364.884,357.423H59.603c-5.498,0-9.955-4.457-9.955-9.955V44.048c0-5.498,4.457-9.955,9.955-9.955h305.281
		c5.498,0,9.955,4.457,9.955,9.955v303.419C374.839,352.966,370.382,357.423,364.884,357.423z"/>
	<rect x="227.417" y="493.863" class="st1" width="100.397" height="18.274"/>
	<text transform="matrix(1 0 0 1 231.0777 504.4837)" class="st0 st2 st3">laurel o’brien</text>
	<rect x="74.25" y="339" class="st4" width="275.333" height="220.667"/>
	<path class="st5" d="M371.651,64.783H52.835V45.439c0-4.385,3.554-7.939,7.939-7.939h302.94c4.383,0,7.937,3.554,7.937,7.937
		V64.783z"/>
	<rect x="28.772" y="145.614" class="st1" width="361.983" height="86.639"/>
	<text transform="matrix(1 0 0 1 88.5844 182.2162)" class="st6 st2 st7">file &gt; print</text>
	<circle class="st0" cx="65.712" cy="50.415" r="7.778"/>
	<circle class="st0" cx="84.712" cy="50.415" r="7.778"/>
	<circle class="st0" cx="104.212" cy="50.415" r="7.778"/>
	<line class="st8" x1="62.712" y1="47.415" x2="68.712" y2="53.415"/>
	<line class="st8" x1="68.712" y1="47.415" x2="62.712" y2="53.415"/>
	<line class="st8" x1="81.132" y1="50.426" x2="88.292" y2="50.403"/>
	<g>
		<line class="st8" x1="99.969" y1="50.415" x2="108.455" y2="50.415"/>
		<line class="st8" x1="104.212" y1="46.172" x2="104.212" y2="54.657"/>
	</g>
	<line class="st4" x1="91.917" y1="387.5" x2="251.917" y2="387.5"/>
	<line class="st4" x1="266.417" y1="387.5" x2="323.028" y2="387.5"/>
	<line class="st4" x1="92.417" y1="406.5" x2="127.917" y2="406.5"/>
	<line class="st4" x1="142.417" y1="406.5" x2="182.917" y2="406.5"/>
	<line class="st4" x1="197.528" y1="406.5" x2="323.028" y2="406.5"/>
	<line class="st4" x1="92.417" y1="426" x2="244.917" y2="426"/>
	<line class="st4" x1="259.417" y1="426" x2="323.028" y2="426"/>
	<line class="st4" x1="93.917" y1="444.5" x2="173.417" y2="444.5"/>
	<line class="st4" x1="187.917" y1="444.5" x2="323.028" y2="444.5"/>
	<line class="st4" x1="92.917" y1="462.5" x2="113.917" y2="462.5"/>
	<line class="st4" x1="125.917" y1="462.5" x2="212.417" y2="462.5"/>
	<line class="st4" x1="227.417" y1="462.5" x2="258.917" y2="462.5"/>
	<line class="st4" x1="273.028" y1="462.5" x2="323.028" y2="462.5"/>
	<line class="st4" x1="93.417" y1="481.5" x2="264.417" y2="481.5"/>
	<line class="st4" x1="281.028" y1="481.5" x2="323.028" y2="481.5"/>
	<line class="st4" x1="93.417" y1="501" x2="128.917" y2="501"/>
	<line class="st4" x1="143.417" y1="501" x2="219.417" y2="501"/>
	<line class="st4" x1="92.417" y1="519.167" x2="113.417" y2="519.167"/>
	<line class="st4" x1="125.417" y1="519.167" x2="193.584" y2="519.167"/>
	<line class="st4" x1="209.764" y1="519.167" x2="322.528" y2="519.167"/>
</g>
</svg>
