<?xml version="1.0" encoding="utf-8"?>
<!-- Generator: Adobe Illustrator 19.1.0, SVG Export Plug-In . SVG Version: 6.00 Build 0)  -->
<svg version="1.1" id="Layer_1" xmlns="http://www.w3.org/2000/svg" xmlns:xlink="http://www.w3.org/1999/xlink" x="0px" y="0px"
	 viewBox="0 0 358.938 349" style="enable-background:new 0 0 358.938 349;" xml:space="preserve">
<style type="text/css">
	.st0{fill:none;stroke:#1500A2;stroke-width:2;stroke-linecap:round;stroke-miterlimit:10;}
	.st1{fill:none;stroke:#1500A2;stroke-width:2;stroke-miterlimit:10;}
	.st2{fill:none;stroke:#1500A2;stroke-width:2;stroke-linecap:round;stroke-miterlimit:10;stroke-dasharray:2,4,2,4,2,4;}
	.st3{fill:none;stroke:#1500A2;stroke-width:2;stroke-linecap:round;stroke-linejoin:round;stroke-miterlimit:10;}
	.st4{fill:#1500A2;}
	.st5{fill:none;stroke:#1500A2;stroke-width:4;stroke-miterlimit:10;}
</style>
<g>
	<path class="st4" d="M239.938,349h119V200h-119V349z M353.929,204c0.111,1,0.009,1.165,1.009,1.359v1.24
		c0-0.128-0.406-0.241-0.569-0.325c-0.737-0.378-1.718-0.089-2.097,0.647l-0.953,1.778c-0.379,0.737-0.108,1.642,0.628,2.021
		c0.22,0.113,0.445,0.166,0.676,0.166c0.544,0,1.217-0.297,1.483-0.813l0.832-1.33v135.79c0,0.073-0.502,0.004-0.649,0.15
		c-0.146,0.146-0.396,0.317-0.469,0.317H245.626c0.175,0,0.167-0.94-0.249-1.357c-0.417-0.417-1.439-0.343-1.439-0.168V208.743
		l0.416,0.998c0.266,0.517,0.742,0.813,1.287,0.813c0.231,0,0.441-0.054,0.661-0.166c0.736-0.379,1.014-1.283,0.635-2.021
		l-0.921-1.778c-0.379-0.736-1.189-1.024-1.926-0.647c-0.089,0.046-0.151,0.1-0.151,0.16v-1.207c0-0.113,0.075,0.105,0.169-0.895
		H353.929z"/>
	<path class="st4" d="M310.176,249.5c0,0.828,0.671,1.5,1.5,1.5h1.626c0.829,0,1.5-0.672,1.5-1.5s-0.671-1.5-1.5-1.5h-1.626
		C310.847,248,310.176,248.672,310.176,249.5z"/>
	<path class="st4" d="M317.302,251h2c0.829,0,1.5-0.672,1.5-1.5s-0.671-1.5-1.5-1.5h-2c-0.829,0-1.5,0.672-1.5,1.5
		S316.474,251,317.302,251z"/>
	<path class="st4" d="M323.302,251h2c0.829,0,1.5-0.672,1.5-1.5s-0.671-1.5-1.5-1.5h-2c-0.829,0-1.5,0.672-1.5,1.5
		S322.474,251,323.302,251z"/>
	<path class="st4" d="M340.945,232.061c0.22,0.112,0.454,0.166,0.685,0.166c0.544,0,1.069-0.297,1.335-0.813l0.915-1.778
		c0.379-0.737,0.089-1.642-0.647-2.021c-0.738-0.377-1.641-0.088-2.021,0.647l-0.915,1.778
		C339.919,230.777,340.209,231.682,340.945,232.061z"/>
	<path class="st4" d="M346.437,221.391c0.22,0.112,0.454,0.166,0.685,0.166c0.544,0,1.069-0.297,1.335-0.813l0.915-1.778
		c0.379-0.737,0.089-1.642-0.647-2.021c-0.738-0.381-1.641-0.088-2.021,0.647l-0.915,1.778
		C345.41,220.107,345.7,221.012,346.437,221.391z"/>
	<path class="st4" d="M343.691,226.726c0.22,0.112,0.454,0.166,0.685,0.166c0.544,0,1.069-0.297,1.335-0.813l0.915-1.778
		c0.379-0.737,0.089-1.642-0.647-2.021c-0.738-0.38-1.641-0.088-2.021,0.647l-0.915,1.778
		C342.665,225.442,342.955,226.347,343.691,226.726z"/>
	<path class="st4" d="M349.182,216.056c0.22,0.112,0.454,0.166,0.685,0.166c0.544,0,1.069-0.297,1.335-0.813l0.915-1.778
		c0.379-0.737,0.089-1.642-0.647-2.021c-0.737-0.377-1.641-0.089-2.021,0.647l-0.915,1.778
		C348.156,214.772,348.446,215.677,349.182,216.056z"/>
	<path class="st4" d="M332.708,248.065c0.22,0.112,0.454,0.166,0.685,0.166c0.544,0,1.069-0.297,1.335-0.813l0.915-1.778
		c0.379-0.737,0.089-1.642-0.647-2.021c-0.737-0.377-1.642-0.088-2.021,0.647l-0.915,1.778
		C331.682,246.782,331.972,247.687,332.708,248.065z"/>
	<path class="st4" d="M338.2,237.396c0.22,0.112,0.454,0.166,0.685,0.166c0.544,0,1.069-0.297,1.335-0.813l0.915-1.778
		c0.379-0.737,0.089-1.642-0.647-2.021c-0.738-0.378-1.642-0.089-2.021,0.647l-0.915,1.778
		C337.173,236.112,337.463,237.017,338.2,237.396z"/>
	<path class="st4" d="M335.454,242.73c0.22,0.112,0.454,0.166,0.685,0.166c0.544,0,1.069-0.297,1.335-0.813l0.915-1.778
		c0.379-0.737,0.089-1.642-0.647-2.021c-0.737-0.377-1.642-0.089-2.021,0.647l-0.915,1.778
		C334.428,241.447,334.718,242.352,335.454,242.73z"/>
	<path class="st4" d="M329.302,251h2c0.829,0,1.5-0.672,1.5-1.5s-0.671-1.5-1.5-1.5h-2c-0.829,0-1.5,0.672-1.5,1.5
		S328.474,251,329.302,251z"/>
	<path class="st4" d="M278.699,251h2c0.829,0,1.5-0.672,1.5-1.5s-0.671-1.5-1.5-1.5h-2c-0.829,0-1.5,0.672-1.5,1.5
		S277.871,251,278.699,251z"/>
	<path class="st4" d="M272.699,251h2c0.829,0,1.5-0.672,1.5-1.5s-0.671-1.5-1.5-1.5h-2c-0.829,0-1.5,0.672-1.5,1.5
		S271.871,251,272.699,251z"/>
	<path class="st4" d="M284.699,251h2c0.829,0,1.5-0.672,1.5-1.5s-0.671-1.5-1.5-1.5h-2c-0.829,0-1.5,0.672-1.5,1.5
		S283.871,251,284.699,251z"/>
	<path class="st4" d="M265.359,249.012c-0.363,0.745-0.053,1.53,0.692,1.893c0.279,0.136,0.592,0.095,0.903,0.095h1.745
		c0.829,0,1.5-0.672,1.5-1.5s-0.671-1.5-1.5-1.5h-1.582C266.433,248,265.683,248.348,265.359,249.012z"/>
	<path class="st4" d="M254.323,229.303l0.915,1.778c0.266,0.517,0.791,0.813,1.335,0.813c0.231,0,0.465-0.054,0.685-0.166
		c0.736-0.379,1.026-1.283,0.647-2.021l-0.915-1.778c-0.379-0.735-1.282-1.025-2.021-0.647
		C254.234,227.661,253.944,228.565,254.323,229.303z"/>
	<path class="st4" d="M251.578,223.968l0.915,1.778c0.266,0.517,0.791,0.813,1.335,0.813c0.231,0,0.465-0.054,0.685-0.166
		c0.736-0.379,1.026-1.283,0.647-2.021l-0.915-1.778c-0.379-0.735-1.283-1.024-2.021-0.647
		C251.489,222.326,251.199,223.23,251.578,223.968z"/>
	<path class="st4" d="M248.832,218.633l0.915,1.778c0.266,0.517,0.791,0.813,1.335,0.813c0.231,0,0.465-0.054,0.685-0.166
		c0.736-0.379,1.026-1.283,0.647-2.021l-0.915-1.778c-0.378-0.736-1.283-1.024-2.02-0.647
		C248.743,216.991,248.453,217.896,248.832,218.633z"/>
	<path class="st4" d="M257.069,234.638l0.915,1.778c0.266,0.517,0.791,0.813,1.335,0.813c0.231,0,0.465-0.054,0.685-0.166
		c0.736-0.379,1.026-1.283,0.647-2.021l-0.915-1.778c-0.379-0.736-1.282-1.024-2.021-0.647
		C256.98,232.996,256.69,233.9,257.069,234.638z"/>
	<path class="st4" d="M246.086,213.298l0.915,1.778c0.266,0.517,0.791,0.813,1.335,0.813c0.231,0,0.465-0.054,0.685-0.166
		c0.736-0.379,1.026-1.283,0.647-2.021l-0.915-1.778c-0.378-0.735-1.283-1.025-2.021-0.647
		C245.998,211.656,245.708,212.561,246.086,213.298z"/>
	<path class="st4" d="M259.814,239.973l0.915,1.778c0.266,0.517,0.791,0.813,1.335,0.813c0.231,0,0.465-0.054,0.685-0.166
		c0.736-0.379,1.026-1.283,0.647-2.021l-0.915-1.778c-0.379-0.735-1.284-1.025-2.021-0.647
		C259.726,238.331,259.436,239.235,259.814,239.973z"/>
	<path class="st4" d="M262.56,245.308l0.915,1.778c0.266,0.517,0.791,0.813,1.335,0.813c0.231,0,0.465-0.054,0.685-0.166
		c0.736-0.379,1.026-1.283,0.647-2.021l-0.915-1.778c-0.379-0.736-1.283-1.024-2.021-0.647
		C262.471,243.666,262.181,244.57,262.56,245.308z"/>
	<path class="st4" d="M340.701,329.306l-1.414-1.414c-0.586-0.586-1.535-0.586-2.121,0s-0.586,1.535,0,2.121l1.414,1.414
		c0.293,0.293,0.677,0.439,1.061,0.439s0.768-0.146,1.061-0.439C341.287,330.841,341.287,329.892,340.701,329.306z"/>
	<path class="st4" d="M336.458,325.063l-1.414-1.414c-0.586-0.586-1.535-0.586-2.121,0s-0.586,1.535,0,2.121l1.414,1.414
		c0.293,0.293,0.677,0.439,1.061,0.439s0.768-0.146,1.061-0.439C337.044,326.599,337.044,325.649,336.458,325.063z"/>
	<path class="st4" d="M312.923,321h-2c-0.829,0-1.5,0.672-1.5,1.5s0.671,1.5,1.5,1.5h2c0.829,0,1.5-0.672,1.5-1.5
		S313.751,321,312.923,321z"/>
	<path class="st4" d="M349.894,340.619c-0.586,0.585-0.586,1.535-0.001,2.121l1.414,1.415c0.293,0.293,0.677,0.439,1.061,0.439
		c0.384,0,0.768-0.146,1.06-0.439c0.586-0.585,0.586-1.535,0.001-2.121l-1.414-1.415
		C351.43,340.034,350.479,340.032,349.894,340.619z"/>
	<path class="st4" d="M349.186,337.791l-1.414-1.414c-0.586-0.586-1.535-0.586-2.121,0s-0.586,1.535,0,2.121l1.414,1.414
		c0.293,0.293,0.677,0.439,1.061,0.439s0.768-0.146,1.061-0.439C349.772,339.326,349.772,338.377,349.186,337.791z"/>
	<path class="st4" d="M344.943,333.549l-1.414-1.414c-0.586-0.586-1.535-0.586-2.121,0s-0.586,1.535,0,2.121l1.414,1.414
		c0.293,0.293,0.677,0.439,1.061,0.439s0.768-0.146,1.061-0.439C345.529,335.084,345.529,334.135,344.943,333.549z"/>
	<path class="st4" d="M306.923,321h-2c-0.829,0-1.5,0.672-1.5,1.5s0.671,1.5,1.5,1.5h2c0.829,0,1.5-0.672,1.5-1.5
		S307.751,321,306.923,321z"/>
	<path class="st4" d="M264.371,322.609l-1.414,1.414c-0.586,0.586-0.586,1.535,0,2.121c0.293,0.293,0.677,0.439,1.061,0.439
		s0.768-0.146,1.061-0.439l1.414-1.414c0.586-0.586,0.586-1.535,0-2.121S264.957,322.023,264.371,322.609z"/>
	<path class="st4" d="M260.128,326.852l-1.415,1.414c-0.586,0.585-0.586,1.535,0,2.121c0.293,0.293,0.677,0.439,1.061,0.439
		s0.768-0.146,1.061-0.439l1.415-1.414c0.586-0.585,0.586-1.535,0-2.121C261.664,326.266,260.714,326.266,260.128,326.852z"/>
	<path class="st4" d="M288.923,321h-2c-0.829,0-1.5,0.672-1.5,1.5s0.671,1.5,1.5,1.5h2c0.829,0,1.5-0.672,1.5-1.5
		S289.751,321,288.923,321z"/>
	<path class="st4" d="M300.923,321h-2c-0.829,0-1.5,0.672-1.5,1.5s0.671,1.5,1.5,1.5h2c0.829,0,1.5-0.672,1.5-1.5
		S301.751,321,300.923,321z"/>
	<path class="st4" d="M294.923,321h-2c-0.829,0-1.5,0.672-1.5,1.5s0.671,1.5,1.5,1.5h2c0.829,0,1.5-0.672,1.5-1.5
		S295.751,321,294.923,321z"/>
	<path class="st4" d="M251.643,335.337l-1.415,1.414c-0.586,0.585-0.586,1.535,0,2.121c0.293,0.293,0.677,0.439,1.061,0.439
		s0.768-0.146,1.061-0.439l1.415-1.414c0.586-0.585,0.586-1.535,0-2.121C253.179,334.751,252.229,334.751,251.643,335.337z"/>
	<path class="st4" d="M247.4,339.58l-1.415,1.414c-0.586,0.585-0.586,1.535,0,2.121c0.293,0.293,0.677,0.439,1.061,0.439
		s0.768-0.146,1.061-0.439l1.415-1.414c0.586-0.585,0.586-1.535,0-2.121C248.936,338.994,247.986,338.994,247.4,339.58z"/>
	<path class="st4" d="M322.923,324h2c0.829,0,1.5-0.672,1.5-1.5s-0.671-1.5-1.5-1.5h-2c-0.829,0-1.5,0.672-1.5,1.5
		S322.094,324,322.923,324z"/>
	<path class="st4" d="M328.923,324h2c0.829,0,1.5-0.672,1.5-1.5s-0.671-1.5-1.5-1.5h-2c-0.829,0-1.5,0.672-1.5,1.5
		S328.094,324,328.923,324z"/>
	<path class="st4" d="M279.423,322.5c0,0.828,0.671,1.5,1.5,1.5h2c0.829,0,1.5-0.672,1.5-1.5s-0.671-1.5-1.5-1.5h-2
		C280.094,321,279.423,321.672,279.423,322.5z"/>
	<path class="st4" d="M255.886,331.095l-1.415,1.414c-0.586,0.585-0.586,1.535,0,2.121c0.293,0.293,0.677,0.439,1.061,0.439
		s0.768-0.146,1.061-0.439l1.415-1.414c0.586-0.585,0.586-1.535,0-2.121C257.421,330.509,256.472,330.509,255.886,331.095z"/>
	<path class="st4" d="M316.923,324h2c0.829,0,1.5-0.672,1.5-1.5s-0.671-1.5-1.5-1.5h-2c-0.829,0-1.5,0.672-1.5,1.5
		S316.094,324,316.923,324z"/>
	<path class="st4" d="M267.423,322.5c0,0.828,0.671,1.5,1.5,1.5h2c0.829,0,1.5-0.672,1.5-1.5s-0.671-1.5-1.5-1.5h-2
		C268.094,321,267.423,321.672,267.423,322.5z"/>
	<path class="st4" d="M273.423,322.5c0,0.828,0.671,1.5,1.5,1.5h2c0.829,0,1.5-0.672,1.5-1.5s-0.671-1.5-1.5-1.5h-2
		C274.094,321,273.423,321.672,273.423,322.5z"/>
	<path class="st4" d="M289.98,240.99l6.875,11.459l-6.875,11.459c-0.551,0.918-0.274,2.095,0.606,2.685
		c-2.093,2.16-3.389,5.097-3.389,8.335c0,6.611,5.379,11.99,11.99,11.99s11.99-5.379,11.99-11.99c0-3.238-1.296-6.175-3.389-8.335
		c0.88-0.589,1.157-1.766,0.606-2.685l-6.875-11.459l6.875-11.459c0.551-0.918,0.274-2.095-0.606-2.685
		c2.093-2.16,3.389-5.097,3.389-8.335c0-6.611-5.379-11.99-11.99-11.99s-11.99,5.379-11.99,11.99c0,3.238,1.296,6.175,3.389,8.335
		C289.706,238.895,289.429,240.072,289.98,240.99z M299.188,282.918c-4.406,0-7.99-3.584-7.99-7.99s3.584-7.99,7.99-7.99
		s7.99,3.584,7.99,7.99S303.593,282.918,299.188,282.918z M303.676,263.817c-1.388-0.563-2.901-0.88-4.488-0.88
		s-3.1,0.317-4.488,0.88l4.488-7.481L303.676,263.817z M294.699,241.081c1.388,0.563,2.901,0.88,4.488,0.88
		c1.587,0,3.1-0.317,4.488-0.88l-4.488,7.481L294.699,241.081z M299.188,221.98c4.406,0,7.99,3.584,7.99,7.99s-3.584,7.99-7.99,7.99
		s-7.99-3.584-7.99-7.99S294.782,221.98,299.188,221.98z"/>
</g>
<g>
	<path class="st4" d="M249.938,80h-10v-5h-14v5h-6V70h-7.048c0.162,0,0.296-0.791,0.379-1.21c0.446-2.247-0.287-4.518-1.961-6.065
		c-2.082-1.927-3.416-4.017-3.965-6.21L206.964,55h-5.026v-2.173l7.391-6.906c0.781-0.781,1.024-2.047,0.242-2.828
		s-2.411-0.781-3.192,0l-4.442,4.078v-8.157v-0.216c5-0.921,8-4.729,8-9.277V25h-8v-7h-11v11.521c0,4.548,3,8.355,7,9.277v0.216V55
		h-3.088l-0.379,1.512c-0.549,2.193-1.882,4.281-3.963,6.208c-1.675,1.547-2.408,3.822-1.963,6.071
		c0.083,0.419,0.217,1.209,0.379,1.209h-3.987V35h-15v-1h3.496c3.857,0,6.995-3.143,6.995-7s-3.138-7-6.995-7h-3.496v-2h-16v17h-4V0
		h-39v35.014v4v8.488V69.98v4v30.967v4V144h35.52h4h3.493h23.98h3.493h4h30.967h4h34.547v-39h-5V80z M205.938,29v0.521
		c0,2.323-1,4.314-4,5.116V29H205.938z M194.938,29.521V22h3v3.023v9.613C195.938,33.836,194.938,31.844,194.938,29.521z
		 M245.938,84v21h-6V84H245.938z M229.938,79h6v0.971V105h-6V79.971V79z M225.938,84v21h-6V84H225.938z M192.469,68.012
		c-0.176-0.886,0.1-1.743,0.755-2.349c2.202-2.039,3.764-4.663,4.656-6.663h6.054c0.894,2,2.455,4.62,4.657,6.659
		c0.655,0.605,0.93,1.469,0.754,2.354c-0.224,1.128-1.358,1.987-2.641,1.987h-11.595C193.828,70,192.692,69.14,192.469,68.012z
		 M195.109,74h11.595h9.233v5.971V105h-31V74H195.109z M149.938,74h31v31h-31V74z M173.434,24c1.651,0,2.995,1.349,2.995,3
		s-1.344,3-2.995,3h-3.496v-6H173.434z M157.938,22h8v13h-8V22z M153.95,39h16.487h10.5v31h-31V39H153.95z M114.938,4h31v31h-31V4z
		 M114.938,39h31v31h-8V48h-7.461h-4h-3.493h-4h-4.046V39z M125.938,70h-3V52h3V70z M133.938,70h-4V52h4V70z M114.938,52h4v18h-4V52
		z M114.938,74h4.046h4h3.493h4h7.492h7.969v31h-31V74z M145.938,140h-31v-31h31V140z M157.938,140v-4h15v4H157.938z M157.938,129
		h15v3h-15V129z M172.938,125h-15v-4h15V125z M180.938,140h-4v-3.579v-4v-3.493v-4V117h-23v7.928v4v3.493v4V140h-4v-31h31V140z
		 M215.938,140h-31v-31h31V140z M250.938,109v31h-31v-31h6.443h4h5.99h4h9.99H250.938z"/>
	<path class="st4" d="M167.316,5.646c0-0.992-0.454-2.846-3.494-4.106c-1.021-0.423-2.19,0.061-2.613,1.082
		c-0.423,1.021,0.062,2.19,1.082,2.613c0.36,0.149,0.615,0.294,0.788,0.411c-0.173,0.118-0.428,0.263-0.789,0.412
		c-3.038,1.261-3.492,3.114-3.492,4.107c0,0.992,0.454,2.846,3.492,4.106c0.251,0.104,0.511,0.153,0.766,0.153
		c0.785,0,1.529-0.465,1.849-1.234c0.423-1.021-0.062-2.19-1.081-2.614c-0.36-0.149-0.616-0.294-0.788-0.412
		c0.172-0.117,0.427-0.262,0.787-0.411C166.862,8.492,167.316,6.639,167.316,5.646z"/>
</g>
<g>
	<path class="st4" d="M133.938,322.957v-4V213.315c0-5.1-4.211-9.315-9.311-9.315H19.239c-5.1,0-9.302,4.216-9.302,9.315v23.388
		c0,0.013-0.121,0.034-0.195,0.048c-0.158,0.03-0.301,0.065-0.457,0.101c-0.215,0.05-0.421,0.104-0.632,0.164
		c-0.152,0.044-0.299,0.09-0.448,0.14c-0.209,0.07-0.414,0.146-0.617,0.227c-0.142,0.056-0.284,0.113-0.423,0.174
		c-0.207,0.092-0.409,0.192-0.61,0.295c-0.127,0.065-0.256,0.128-0.381,0.197c-0.214,0.119-0.42,0.249-0.625,0.38
		c-0.104,0.066-0.211,0.128-0.312,0.198c-0.261,0.179-0.513,0.37-0.759,0.568c-0.039,0.031-0.08,0.058-0.118,0.09
		c-0.284,0.235-0.556,0.483-0.817,0.743c-0.066,0.066-0.126,0.138-0.191,0.205c-0.188,0.196-0.374,0.395-0.549,0.604
		c-0.084,0.101-0.162,0.207-0.243,0.31c-0.145,0.185-0.288,0.37-0.422,0.563c-0.083,0.119-0.16,0.243-0.238,0.365
		c-0.12,0.188-0.237,0.377-0.347,0.571c-0.074,0.132-0.144,0.265-0.214,0.4c-0.101,0.195-0.196,0.392-0.286,0.593
		c-0.063,0.14-0.124,0.281-0.181,0.424c-0.083,0.205-0.158,0.414-0.229,0.625c-0.049,0.145-0.099,0.289-0.142,0.436
		c-0.065,0.22-0.12,0.445-0.173,0.67c-0.034,0.144-0.071,0.285-0.099,0.431c-0.049,0.25-0.083,0.504-0.116,0.758
		c-0.016,0.126-0.039,0.25-0.052,0.377C0.022,247.745,0,248.133,0,248.526c0,0.391,0.025,0.78,0.064,1.166
		c0.012,0.121,0.031,0.24,0.047,0.361c0.035,0.268,0.078,0.535,0.132,0.8c0.027,0.132,0.056,0.264,0.087,0.395
		c0.063,0.264,0.136,0.524,0.217,0.783c0.036,0.113,0.067,0.228,0.106,0.34c0.126,0.364,0.265,0.722,0.425,1.073
		c0.008,0.018,0.018,0.035,0.027,0.052c0.154,0.333,0.326,0.657,0.511,0.975c0.061,0.105,0.128,0.207,0.193,0.311
		c0.143,0.23,0.293,0.456,0.452,0.677c0.079,0.109,0.159,0.218,0.241,0.325c0.054,0.07,0.103,0.144,0.159,0.214
		c-1.035,1.282-1.802,2.782-2.24,4.417c-0.019,0.069-0.036,0.138-0.053,0.208c-0.061,0.246-0.118,0.493-0.164,0.745
		c-0.03,0.162-0.052,0.326-0.075,0.49c-0.025,0.182-0.055,0.362-0.072,0.547C0.021,262.771,0,263.14,0,263.512
		c0,0.391,0.025,0.78,0.064,1.166c0.012,0.121,0.031,0.24,0.047,0.361c0.035,0.268,0.078,0.535,0.132,0.799
		c0.027,0.133,0.056,0.264,0.087,0.396c0.063,0.263,0.136,0.522,0.216,0.78c0.036,0.115,0.068,0.23,0.107,0.344
		c0.125,0.362,0.264,0.72,0.424,1.069c0.011,0.023,0.024,0.046,0.035,0.069c0.152,0.326,0.32,0.644,0.501,0.956
		c0.063,0.109,0.133,0.215,0.2,0.322c0.141,0.226,0.287,0.447,0.443,0.664c0.081,0.113,0.163,0.224,0.249,0.334
		c0.053,0.069,0.101,0.141,0.155,0.209c-1.035,1.282-1.802,2.783-2.241,4.419c-0.018,0.068-0.035,0.136-0.052,0.204
		c-0.062,0.247-0.119,0.495-0.165,0.748c-0.03,0.162-0.051,0.325-0.075,0.488c-0.025,0.183-0.055,0.364-0.072,0.549
		C0.021,277.757,0,278.126,0,278.498c0,0.391,0.025,0.78,0.064,1.166c0.012,0.122,0.032,0.242,0.048,0.362
		c0.035,0.268,0.078,0.533,0.131,0.797c0.027,0.133,0.056,0.266,0.088,0.398c0.062,0.262,0.135,0.52,0.216,0.777
		c0.036,0.116,0.068,0.232,0.108,0.346c0.125,0.362,0.264,0.719,0.423,1.068c0.011,0.024,0.025,0.047,0.036,0.071
		c0.152,0.326,0.32,0.643,0.501,0.955c0.063,0.109,0.132,0.214,0.199,0.321c0.141,0.226,0.288,0.448,0.444,0.665
		c0.081,0.113,0.164,0.225,0.249,0.335c0.053,0.069,0.101,0.141,0.155,0.209c-1.035,1.282-1.802,2.782-2.241,4.417
		c-0.019,0.069-0.036,0.139-0.054,0.208c-0.061,0.246-0.118,0.493-0.164,0.745c-0.03,0.162-0.052,0.326-0.075,0.49
		c-0.025,0.182-0.055,0.362-0.072,0.547C0.021,292.742,0,293.112,0,293.483c0,0.393,0.022,0.782,0.059,1.166
		c0.012,0.127,0.035,0.251,0.052,0.377c0.033,0.255,0.067,0.509,0.116,0.758c0.028,0.146,0.066,0.287,0.099,0.431
		c0.053,0.225,0.107,0.45,0.173,0.67c0.044,0.147,0.093,0.291,0.142,0.435c0.072,0.211,0.147,0.42,0.229,0.626
		c0.057,0.143,0.118,0.283,0.181,0.423c0.09,0.201,0.186,0.399,0.286,0.594c0.069,0.134,0.14,0.268,0.214,0.399
		c0.11,0.194,0.227,0.383,0.347,0.571c0.079,0.123,0.155,0.246,0.238,0.365c0.134,0.193,0.277,0.379,0.422,0.563
		c0.081,0.104,0.158,0.21,0.243,0.31c0.175,0.209,0.36,0.407,0.549,0.604c0.065,0.068,0.125,0.139,0.191,0.205
		c0.261,0.26,0.533,0.508,0.817,0.743c0.038,0.032,0.08,0.059,0.118,0.09c0.246,0.198,0.498,0.389,0.759,0.568
		c0.102,0.07,0.208,0.131,0.312,0.198c0.206,0.132,0.412,0.261,0.625,0.38c0.125,0.069,0.253,0.132,0.381,0.197
		c0.201,0.103,0.404,0.203,0.612,0.295c0.139,0.061,0.281,0.117,0.422,0.173c0.204,0.081,0.411,0.158,0.62,0.228
		c0.149,0.05,0.299,0.096,0.451,0.14c0.21,0.061,0.423,0.115,0.638,0.164c0.156,0.036,0.285,0.071,0.444,0.101
		c0.075,0.014,0.195,0.035,0.195,0.048v20.65v7.488v7.488c0,3.859,3.193,7.066,7.053,7.066h116.947V322.957z M19.239,208h105.388
		c2.894,0,5.311,2.421,5.311,5.315V319H24.479H16.99c-1.074,0-2.053,0.208-3.053,0.642v-16.169v-2v-5.493c0-1.104-0.896-2-2-2
		s-2,0.896-2,2v5.23c-3-0.891-5.964-4.012-5.964-7.727c0-2.271,1.02-4.453,2.775-5.987c0.781-0.683,1.966-1.463,3.524-1.814
		c0.007-0.002,0.017-0.004,0.024-0.005c0.204-0.045,0.421-0.077,0.638-0.106c0.067-0.009,0.133-0.023,0.201-0.031
		c0.275-0.03,0.56-0.047,0.855-0.047s0.58,0.017,0.855,0.047c0.066,0.007,0.13,0.021,0.196,0.03c0.219,0.03,0.436,0.061,0.641,0.107
		c0.005,0.001,0.009,0.002,0.013,0.003c1.561,0.35,2.742,1.132,3.524,1.815c0.065,0.057,0.137,0.1,0.207,0.147
		c1.567,1.46,2.554,3.534,2.554,5.84c0,1.104,0.896,2,2,2s2-0.896,2-2c0-5.869-4.241-10.757-9.818-11.783
		c-0.104-0.02-0.209-0.031-0.314-0.048c-0.244-0.038-0.488-0.079-0.736-0.102c-0.372-0.036-0.747-0.057-1.122-0.057
		c-0.351,0-0.7,0.022-1.047,0.053c-0.135,0.012-0.269,0.027-0.403,0.044c-0.186,0.023-0.37,0.053-0.555,0.085
		c-1.563,0.265-3.021,0.831-4.318,1.64c-0.007-0.01-0.016-0.018-0.024-0.028c-0.232-0.304-0.438-0.624-0.624-0.954
		c-0.044-0.078-0.083-0.157-0.125-0.237c-0.162-0.312-0.307-0.632-0.426-0.962c-0.013-0.037-0.031-0.072-0.044-0.109
		c-0.124-0.359-0.214-0.729-0.284-1.103c-0.017-0.089-0.031-0.178-0.044-0.267C4.04,279.273,4,278.888,4,278.498
		c0-0.282,0.016-0.562,0.045-0.838c0.007-0.068,0.022-0.134,0.031-0.201c0.028-0.21,0.057-0.42,0.102-0.626
		c0.011-0.05,0.026-0.098,0.038-0.148c0.054-0.228,0.113-0.454,0.187-0.675c0.004-0.011,0.008-0.022,0.012-0.033
		c0.446-1.312,1.241-2.499,2.348-3.466l0.018-0.016c0.781-0.679,1.952-1.451,3.5-1.799c0.007-0.001,0.013-0.004,0.02-0.005
		c0.203-0.045,0.419-0.076,0.635-0.106c0.068-0.009,0.134-0.024,0.202-0.031c0.275-0.03,0.559-0.047,0.854-0.047
		c0.295,0,0.579,0.017,0.854,0.047c0.067,0.007,0.131,0.021,0.198,0.03c0.218,0.03,0.435,0.061,0.64,0.107
		c0.004,0.001,0.007,0.002,0.011,0.003c1.562,0.35,2.743,1.133,3.526,1.817c0.066,0.057,0.138,0.101,0.208,0.148
		c1.567,1.46,2.553,3.534,2.553,5.839c0,1.104,0.896,2,2,2s2-0.896,2-2c0-5.869-4.241-10.758-9.817-11.784
		c-0.104-0.02-0.21-0.031-0.315-0.048c-0.244-0.038-0.487-0.079-0.735-0.102c-0.372-0.036-0.747-0.057-1.123-0.057
		c-0.35,0-0.699,0.022-1.046,0.053c-0.136,0.012-0.271,0.028-0.406,0.044c-0.183,0.023-0.366,0.052-0.547,0.084
		c-1.565,0.264-3.026,0.831-4.323,1.641c-0.007-0.008-0.014-0.016-0.021-0.025c-0.234-0.305-0.44-0.626-0.626-0.958
		c-0.044-0.078-0.083-0.157-0.124-0.236c-0.161-0.311-0.305-0.63-0.424-0.958c-0.014-0.039-0.032-0.075-0.045-0.114
		c-0.123-0.359-0.214-0.728-0.284-1.101c-0.017-0.089-0.031-0.179-0.045-0.269C4.04,264.286,4,263.901,4,263.512
		c0-2.271,1.007-4.452,2.762-5.986l0.018-0.015c0.781-0.679,1.954-1.452,3.503-1.8c0.005-0.001,0.01-0.003,0.016-0.004
		c0.204-0.045,0.42-0.077,0.637-0.106c0.067-0.009,0.133-0.023,0.2-0.031c0.275-0.03,0.559-0.047,0.854-0.047
		c0.295,0,0.579,0.017,0.854,0.047c0.066,0.007,0.13,0.021,0.196,0.03c0.219,0.03,0.436,0.061,0.642,0.107
		c0.002,0,0.005,0.001,0.007,0.002c1.564,0.35,2.745,1.133,3.529,1.818c0.066,0.058,0.139,0.102,0.211,0.15
		c1.565,1.46,2.551,3.533,2.551,5.837c0,1.104,0.896,2,2,2s2-0.896,2-2c0-5.868-4.241-10.757-9.817-11.783
		c-0.104-0.02-0.21-0.031-0.315-0.048c-0.244-0.038-0.487-0.079-0.735-0.102c-0.372-0.036-0.747-0.057-1.123-0.057
		c-0.35,0-0.699,0.022-1.046,0.053c-0.136,0.012-0.271,0.028-0.407,0.044c-0.183,0.023-0.365,0.052-0.547,0.084
		c-1.567,0.265-3.029,0.832-4.328,1.644c-0.007-0.009-0.015-0.017-0.021-0.026c-0.237-0.306-0.446-0.628-0.633-0.96
		c-0.041-0.073-0.078-0.147-0.116-0.22c-0.164-0.314-0.31-0.636-0.429-0.969c-0.013-0.035-0.029-0.069-0.042-0.104
		c-0.123-0.359-0.213-0.73-0.282-1.106c-0.016-0.088-0.03-0.176-0.043-0.265C4.039,249.311,4,248.923,4,248.526
		c0-4.406,3.584-7.99,7.99-7.99s7.99,3.584,7.99,7.99c0,1.104,0.896,2,2,2s1.974-0.896,1.974-2c0-5.929-4.017-10.853-10.017-11.81
		v-23.401C13.938,210.421,16.345,208,19.239,208z M16.99,344c-1.654,0-3.053-1.412-3.053-3.066v-7.488
		c0-5.783,4.758-10.445,10.541-10.445h105.459v3h-8.053c-1.104,0-2,0.896-2,2s0.896,2,2,2h8.053v6h-8.053c-1.104,0-2,0.896-2,2
		s0.896,2,2,2h8.053v4H16.99z"/>
	<path class="st4" d="M34.469,331H21.98c-1.104,0-2,0.896-2,2s0.896,2,2,2h12.488c1.104,0,2-0.896,2-2S35.573,331,34.469,331z"/>
	<path class="st4" d="M114.393,331H44.459c-1.104,0-2,0.896-2,2s0.896,2,2,2h69.934c1.104,0,2-0.896,2-2S115.497,331,114.393,331z"
		/>
</g>
</svg>
