<?xml version="1.0" encoding="utf-8"?>
<!-- Generator: Adobe Illustrator 19.1.0, SVG Export Plug-In . SVG Version: 6.00 Build 0)  -->
<svg version="1.1" id="Layer_1" xmlns="http://www.w3.org/2000/svg" xmlns:xlink="http://www.w3.org/1999/xlink" x="0px" y="0px"
	 viewBox="0 0 144 144" style="enable-background:new 0 0 144 144;" xml:space="preserve">
<style type="text/css">
	.st0{fill:none;stroke:#1500A2;stroke-width:2;stroke-linecap:round;stroke-miterlimit:10;}
	.st1{fill:none;stroke:#1500A2;stroke-width:2;stroke-miterlimit:10;}
	.st2{fill:none;stroke:#1500A2;stroke-width:2;stroke-linecap:round;stroke-miterlimit:10;stroke-dasharray:2,4,2,4,2,4;}
	.st3{fill:none;stroke:#1500A2;stroke-width:2;stroke-linecap:round;stroke-linejoin:round;stroke-miterlimit:10;}
	.st4{fill:#1500A2;}
</style>
<g>
	<path class="st4" d="M139,80h-10v-5h-14v5h-6V70h-7.548c0.162,0,0.296-0.791,0.379-1.21c0.446-2.247-0.287-4.518-1.961-6.065
		c-2.082-1.927-3.416-4.017-3.965-6.21L95.526,55H91v-2.173l7.141-6.906c0.781-0.781,0.899-2.047,0.117-2.828s-2.223-0.781-3.004,0
		L91,47.171v-8.157v-0.216c5-0.921,8-4.729,8-9.277V25h-8v-7H80v11.521c0,4.548,3,8.355,7,9.277v0.216V55h-3.588l-0.379,1.512
		c-0.549,2.193-1.882,4.281-3.963,6.208c-1.675,1.547-2.408,3.822-1.963,6.071C77.191,69.21,77.324,70,77.487,70H74V35H59v-1h2.996
		c3.857,0,6.995-3.143,6.995-7s-3.138-7-6.995-7H59v-2H43v17h-4V0H0v35.014v4v8.488V69.98v4v30.967v4V144h35.02h4h3.493h23.98h3.493
		h4h30.967h4H144v-39h-5V80z M95,29v0.521c0,2.323-1,4.314-4,5.116V29H95z M84,29.521V22h3v3.023v9.613
		C85,33.836,84,31.844,84,29.521z M135,84v21h-6V84H135z M119,79h6v0.971V105h-6V79.971V79z M115,84v21h-6V84H115z M81.031,68.012
		c-0.176-0.886,0.1-1.743,0.755-2.349C83.988,63.624,85.55,61,86.442,59h6.054c0.894,2,2.455,4.62,4.657,6.659
		c0.655,0.605,0.93,1.469,0.754,2.354C97.684,69.141,96.549,70,95.267,70H83.672C82.391,70,81.255,69.14,81.031,68.012z M83.672,74
		h11.595H105v5.971V105H74V74H83.672z M39,74h31v31H39V74z M61.996,24c1.651,0,2.995,1.349,2.995,3s-1.344,3-2.995,3H59v-6H61.996z
		 M47,22h8v13h-8V22z M42.513,39H59h11v31H39V39H42.513z M4,4h31v31H4V4z M4,39h31v31h-8V48h-7.961h-4h-3.493h-4H4V39z M15,70h-3V52
		h3V70z M23,70h-4V52h4V70z M4,52h4v18H4V52z M4,74h3.546h4h3.493h4h7.492H35v31H4V74z M35,140H4v-31h31V140z M47,140v-4h15v4H47z
		 M47,129h15v3H47V129z M62,125H47v-4h15V125z M70,140h-4v-3.579v-4v-3.493v-4V117H43v7.928v4v3.493v4V140h-4v-31h31V140z M105,140
		H74v-31h31V140z M140,109v31h-31v-31h5.943h4h5.99h4h9.99H140z"/>
	<path class="st4" d="M55.879,5.646c0-0.992-0.454-2.846-3.494-4.106c-1.021-0.423-2.19,0.061-2.613,1.082
		c-0.423,1.021,0.062,2.19,1.082,2.613c0.36,0.149,0.615,0.294,0.788,0.411c-0.173,0.118-0.428,0.263-0.789,0.412
		c-3.038,1.261-3.492,3.114-3.492,4.107c0,0.992,0.454,2.846,3.492,4.106c0.251,0.104,0.511,0.153,0.766,0.153
		c0.785,0,1.529-0.465,1.849-1.234c0.423-1.021-0.062-2.19-1.081-2.614c-0.36-0.149-0.616-0.294-0.788-0.412
		c0.172-0.117,0.427-0.262,0.787-0.411C55.425,8.492,55.879,6.639,55.879,5.646z"/>
</g>
</svg>
