<?xml version="1.0" encoding="utf-8"?>
<!-- Generator: Adobe Illustrator 19.1.0, SVG Export Plug-In . SVG Version: 6.00 Build 0)  -->
<svg version="1.1" xmlns="http://www.w3.org/2000/svg" xmlns:xlink="http://www.w3.org/1999/xlink" x="0px" y="0px"
	 viewBox="0 0 568.5 136.346" style="enable-background:new 0 0 568.5 136.346;" xml:space="preserve">
<style type="text/css">
	.st0{fill:#C7F2DD;}
</style>
<g id="Layer_2">
	<path class="st0" d="M466.572,100.346h-0.201c-6.6,0-12-5.4-12-12v-35.5c0-6.6,5.4-12,12-12h0.201c6.6,0,12,5.4,12,12v35.5
		C478.572,94.946,473.172,100.346,466.572,100.346z"/>
	<rect x="8.5" y="8.346" class="st0" width="126" height="126"/>
	<rect x="252.5" y="10.346" class="st0" width="89" height="126"/>
	<rect x="233.5" y="46.346" class="st0" width="127" height="71"/>
	<path class="st0" d="M555.029,136.346h-78.557c-7.44,0-13.471-6.031-13.471-13.471V27.817c0-7.44,6.031-13.471,13.471-13.471
		h78.557c7.44,0,13.471,6.031,13.471,13.471v95.057C568.5,130.315,562.469,136.346,555.029,136.346z"/>
</g>
<g id="Layer_1">
	<g>
		<path d="M95.457,73H28.115c-1.162,0-2.104,0.838-2.104,2s0.942,2,2.104,2h67.342c1.162,0,2.104-0.838,2.104-2S96.619,73,95.457,73
			z"/>
		<path d="M95.457,86H28.115c-1.162,0-2.104,0.838-2.104,2s0.942,2,2.104,2h67.342c1.162,0,2.104-0.838,2.104-2S96.619,86,95.457,86
			z"/>
		<path d="M28.115,65h18.94c1.162,0,2.104-0.838,2.104-2s-0.942-2-2.104-2h-18.94c-1.162,0-2.104,0.838-2.104,2S26.953,65,28.115,65
			z"/>
		<path d="M63.89,65h6.313c1.162,0,2.104-0.838,2.104-2s-0.942-2-2.104-2H63.89c-1.162,0-2.104,0.838-2.104,2S62.728,65,63.89,65z"
			/>
		<path d="M55.463,64.909c0.568,0,1.115-0.232,1.494-0.61c0.4-0.4,0.61-0.947,0.61-1.494c0-0.548-0.211-1.094-0.61-1.494
			c-0.779-0.779-2.189-0.779-2.968,0c-0.4,0.4-0.631,0.946-0.631,1.494c0,0.547,0.231,1.094,0.631,1.494
			C54.369,64.677,54.916,64.909,55.463,64.909z"/>
		<path d="M116,115V35H11v80H116z M15,40h97v71H15V40z"/>
		<path d="M15.489,5.986c-4.641,0-8.418,3.776-8.418,8.418s3.776,8.418,8.418,8.418s8.418-3.776,8.418-8.418
			S20.13,5.986,15.489,5.986z M15.489,18.613c-2.321,0-4.209-1.888-4.209-4.209s1.888-4.209,4.209-4.209s4.209,1.888,4.209,4.209
			S17.81,18.613,15.489,18.613z"/>
		<path d="M34.428,5.986c-4.641,0-8.418,3.776-8.418,8.418s3.776,8.418,8.418,8.418s8.418-3.776,8.418-8.418
			S39.07,5.986,34.428,5.986z M34.428,18.613c-2.321,0-4.209-1.888-4.209-4.209s1.888-4.209,4.209-4.209
			c2.321,0,4.209,1.888,4.209,4.209S36.75,18.613,34.428,18.613z"/>
		<path d="M53.368,5.986c-4.641,0-8.418,3.776-8.418,8.418s3.776,8.418,8.418,8.418s8.418-3.776,8.418-8.418
			S58.01,5.986,53.368,5.986z M53.368,18.613c-2.321,0-4.209-1.888-4.209-4.209s1.888-4.209,4.209-4.209
			c2.321,0,4.209,1.888,4.209,4.209S55.69,18.613,53.368,18.613z"/>
		<path d="M0,29.135V126h126V29.135V0H0V29.135z M122,122H4V29h118V122z M4,4h118v21H4V4z"/>
		<path d="M333,2h-89v36h-19v71h13v6h6v13h89v-13h6v-6h13V38h-19V2z M249,6h80v32h-80V6z M242,111v-4.001v-2.104v-8.418
			c0-1.162-0.838-2.104-2-2.104s-2,0.942-2,2.104V105h-8V80h14v31H242z M329,124h-80v-8.583V80h80v35.417V124z M339,105v-8.523
			c0-1.162-0.838-2.104-2-2.104s-2,0.942-2,2.104v8.418v2.104V111h-2V80h14v25H339z M347,42v33H230V42h14.371h88.386H347z"/>
		<path d="M330.652,69.119c5.802,0,10.522-4.721,10.522-10.522s-4.721-10.522-10.522-10.522s-10.522,4.721-10.522,10.522
			S324.851,69.119,330.652,69.119z M330.652,52.284c3.481,0,6.313,2.832,6.313,6.313s-2.832,6.313-6.313,6.313
			s-6.313-2.832-6.313-6.313S327.171,52.284,330.652,52.284z"/>
		<path d="M313.817,92h-50.506c-1.162,0-2.104,0.838-2.104,2s0.942,2,2.104,2h50.506c1.162,0,2.104-0.838,2.104-2
			S314.979,92,313.817,92z"/>
		<path d="M313.817,103h-50.506c-1.162,0-2.104,0.838-2.104,2s0.942,2,2.104,2h50.506c1.162,0,2.104-0.838,2.104-2
			S314.979,103,313.817,103z"/>
		<path d="M462.706,115c0,1.162,0.942,2,2.104,2h10.522c1.162,0,2.104-0.838,2.104-2s-0.942-2-2.104-2h-10.522
			C463.648,113,462.706,113.838,462.706,115z"/>
		<path d="M483.75,117h58.924c1.162,0,2.104-0.838,2.104-2s-0.942-2-2.104-2H483.75c-1.162,0-2.104,0.838-2.104,2
			S482.588,117,483.75,117z"/>
		<path d="M551.298,6h-88.797C457.972,6,455,8.618,455,13.146V33c0,0-0.715,0-0.717,0c-0.038,0-0.072-0.223-0.11-0.215
			c-0.606,0.131-1.191,0.191-1.754,0.422c-0.2,0.082-0.383,0.13-0.577,0.224c-0.385,0.187-0.764,0.348-1.122,0.579
			c-0.208,0.134-0.4,0.271-0.598,0.42c-0.314,0.235-0.618,0.47-0.904,0.738c-0.188,0.176-0.362,0.356-0.537,0.545
			c-0.261,0.283-0.503,0.575-0.733,0.885c-0.153,0.207-0.301,0.413-0.439,0.631c-0.21,0.333-0.392,0.681-0.565,1.038
			c-0.109,0.224-0.223,0.442-0.315,0.674c-0.161,0.403-0.278,0.823-0.389,1.249c-0.054,0.209-0.128,0.409-0.169,0.623
			c-0.125,0.649-0.202,1.314-0.202,1.999c0,0.509,0.051,1.011,0.125,1.509c0.018,0.121,0.037,0.241,0.059,0.361
			c0.091,0.49,0.205,0.974,0.364,1.444c0.011,0.032,0.026,0.063,0.038,0.096c0.155,0.443,0.347,0.872,0.56,1.292
			c0.055,0.108,0.11,0.216,0.169,0.322c0.241,0.435,0.505,0.858,0.807,1.259c0.007,0.01,0.012,0.021,0.02,0.031
			c-0.021,0.027-0.034,0.058-0.055,0.085c-0.239,0.323-0.448,0.664-0.649,1.014c-0.12,0.206-0.234,0.412-0.34,0.625
			c-0.151,0.308-0.288,0.619-0.409,0.944c-0.119,0.315-0.211,0.637-0.3,0.962c-0.069,0.261-0.149,0.516-0.198,0.785
			c-0.117,0.623-0.192,1.256-0.192,1.898c0,0.509,0.051,1.011,0.125,1.509c0.018,0.121,0.037,0.241,0.059,0.361
			c0.091,0.49,0.205,0.974,0.364,1.444c0.011,0.032,0.026,0.063,0.038,0.096c0.155,0.443,0.347,0.872,0.56,1.292
			c0.055,0.108,0.11,0.216,0.169,0.322c0.241,0.435,0.505,0.858,0.807,1.259c0.007,0.01,0.012,0.021,0.02,0.031
			c-0.021,0.027-0.034,0.058-0.055,0.085c-0.239,0.323-0.448,0.664-0.649,1.014c-0.12,0.206-0.234,0.412-0.34,0.625
			c-0.151,0.308-0.288,0.619-0.409,0.944c-0.119,0.315-0.211,0.637-0.3,0.962c-0.069,0.261-0.149,0.516-0.198,0.785
			c-0.117,0.623-0.192,1.256-0.192,1.898c0,0.509,0.051,1.011,0.125,1.509c0.018,0.121,0.037,0.241,0.059,0.361
			c0.091,0.49,0.205,0.974,0.364,1.444c0.011,0.032,0.026,0.063,0.038,0.096c0.155,0.443,0.347,0.872,0.56,1.292
			c0.055,0.108,0.11,0.216,0.169,0.322c0.241,0.435,0.505,0.858,0.807,1.259c0.007,0.01,0.012,0.021,0.02,0.031
			c-0.021,0.027-0.034,0.058-0.055,0.085c-0.239,0.323-0.448,0.664-0.649,1.014c-0.12,0.206-0.234,0.412-0.34,0.625
			c-0.151,0.308-0.288,0.619-0.409,0.944c-0.119,0.315-0.211,0.637-0.3,0.962c-0.069,0.261-0.149,0.516-0.198,0.785
			c-0.117,0.623-0.192,1.256-0.192,1.898c0,0.685,0.077,1.35,0.202,1.999c0.041,0.214,0.115,0.414,0.169,0.623
			c0.11,0.426,0.228,0.846,0.389,1.249c0.093,0.233,0.207,0.45,0.315,0.675c0.173,0.357,0.354,0.705,0.565,1.039
			c0.138,0.218,0.286,0.425,0.439,0.632c0.229,0.31,0.472,0.604,0.733,0.887c0.174,0.189,0.349,0.373,0.537,0.549
			c0.286,0.268,0.59,0.511,0.904,0.746c0.198,0.148,0.389,0.301,0.598,0.435c0.358,0.23,0.736,0.423,1.122,0.61
			c0.194,0.094,0.377,0.204,0.577,0.286c0.563,0.231,1.148-0.087,1.754,0.044c0.038,0.008,0.072-0.469,0.11-0.469
			c0.002,0,0.717,0,0.717,0v24.364c0,6.963,4.952,13.636,11.915,13.636H560v-22.053v-4.209V13.146C560,8.618,555.826,6,551.298,6z
			 M556,109h-7.012c-1.162,0-2.104,0.838-2.104,2s0.942,2,2.104,2H556v4h-7.012c-1.162,0-2.104,1.338-2.104,2.5s0.942,2.5,2.104,2.5
			H556v2h-89.085c-4.641,0-8.418-3.859-8.418-8.5s3.776-8.5,8.418-8.5H556V109z M466.915,103c-0.762,0-1.504-0.552-2.23-0.422
			c-0.064,0.011-0.13-0.298-0.193-0.286c-0.688,0.134-1.35,0.175-1.993,0.416c-0.088,0.033-0.177-0.017-0.264,0.018
			c-0.621,0.249-1.214,0.51-1.782,0.85c-0.09,0.054-0.18,0.087-0.269,0.144c-0.555,0.352-0.829,0.735-1.322,1.166
			c-0.036,0.031,0.138,0.044,0.138,0.075v-15.85v-2.104v-4.209c0-1.162-0.838-2.104-2-2.104s-2,0.942-2,2.104v3.821
			c-2-0.871-4.565-3.186-4.565-5.925c0-0.447-0.129-0.885-0.037-1.311c0.015-0.069-0.044-0.132-0.027-0.201
			c0.091-0.362,0.156-0.718,0.311-1.057c0.012-0.026,0.007-0.05,0.019-0.076c0.369-0.776,0.887-1.485,1.572-2.084
			c0.594-0.518,1.482-1.097,2.64-1.389c0.056-0.013,0.103-0.039,0.16-0.05c0.409-0.09,0.848-0.145,1.321-0.145
			c0.473,0,0.912,0.054,1.32,0.144c0.064,0.014,0.121,0.042,0.184,0.057c1.148,0.294,2.035,0.867,2.625,1.383
			c0.009,0.008,0.021,0.01,0.03,0.017c1.309,1.158,2.153,2.83,2.153,4.711c0,1.162,0.942,2.104,2.104,2.104
			c1.162,0,2.104-0.942,2.104-2.104c0-3.133-1.404-5.919-3.584-7.849c-0.016-0.015-0.021-0.035-0.038-0.049
			c-0.067-0.058-0.143-0.1-0.211-0.156c-1.824-1.518-4.136-2.468-6.689-2.468c-1.285,0-2.503,0.265-3.643,0.688
			c-0.039,0.014-0.08,0.022-0.119,0.037c-0.39,0.15-0.755,0.339-1.121,0.533c-0.102,0.054-0.211,0.09-0.311,0.148
			c-0.196-0.283-0.381-0.571-0.526-0.878c-0.031-0.066-0.052-0.135-0.081-0.202c-0.129-0.3-0.232-0.61-0.312-0.928
			c-0.026-0.104-0.052-0.208-0.073-0.314c-0.076-0.388-0.128-0.784-0.128-1.189c0-0.447,0.049-0.885,0.141-1.311
			c0.015-0.069,0.045-0.132,0.062-0.201c0.091-0.362,0.2-0.718,0.355-1.057c0.012-0.026,0.029-0.05,0.041-0.076
			c0.369-0.776,0.898-1.485,1.583-2.084c0.594-0.518,1.488-1.097,2.646-1.389c0.055-0.013,0.106-0.039,0.162-0.05
			c0.409-0.09,0.849-0.144,1.322-0.144c0.473,0,0.913,0.054,1.321,0.144c0.064,0.014,0.121,0.042,0.184,0.057
			c1.148,0.294,2.035,0.867,2.625,1.383c0.009,0.008,0.021,0.01,0.031,0.017c1.31,1.158,2.153,2.83,2.153,4.711
			c0,1.162,0.942,2.104,2.104,2.104s2.104-0.942,2.104-2.104c0-3.133-1.404-5.919-3.585-7.849c-0.016-0.015-0.021-0.035-0.038-0.049
			c-0.067-0.058-0.143-0.1-0.211-0.156c-1.824-1.518-4.136-2.468-6.689-2.468c-1.29,0-2.512,0.266-3.655,0.692
			c-0.035,0.013-0.071,0.02-0.105,0.033c-0.391,0.151-0.757,0.339-1.123,0.534c-0.102,0.054-0.211,0.09-0.311,0.148
			c-0.196-0.283-0.381-0.571-0.526-0.878c-0.031-0.066-0.052-0.135-0.081-0.202c-0.129-0.3-0.232-0.61-0.312-0.928
			c-0.026-0.104-0.052-0.208-0.073-0.314c-0.076-0.388-0.128-0.784-0.128-1.189c0-0.447,0.049-0.885,0.141-1.311
			c0.015-0.069,0.045-0.132,0.062-0.201c0.091-0.362,0.2-0.718,0.355-1.057c0.012-0.026,0.029-0.05,0.041-0.076
			c0.369-0.776,0.898-1.485,1.583-2.084c0.594-0.518,1.488-1.097,2.646-1.389c0.055-0.013,0.106-0.039,0.162-0.05
			c0.409-0.09,0.849-0.145,1.322-0.145c0.473,0,0.913,0.054,1.321,0.144c0.064,0.014,0.121,0.042,0.184,0.057
			c1.148,0.294,2.035,0.867,2.625,1.383c0.009,0.008,0.021,0.01,0.03,0.017c1.309,1.158,2.153,2.83,2.153,4.711
			c0,1.162,0.942,2.104,2.104,2.104s2.104-0.942,2.104-2.104c0-3.133-1.404-5.919-3.585-7.849c-0.016-0.015-0.021-0.035-0.038-0.049
			c-0.067-0.058-0.143-0.1-0.211-0.156c-1.824-1.518-4.136-2.468-6.689-2.468c-1.29,0-2.513,0.266-3.656,0.693
			c-0.034,0.013-0.07,0.019-0.104,0.032c-0.391,0.151-0.757,0.339-1.123,0.534c-0.102,0.054-0.211,0.09-0.311,0.148
			c-0.196-0.283-0.381-0.571-0.526-0.878c-0.031-0.066-0.052-0.135-0.081-0.202c-0.129-0.3-0.232-0.61-0.312-0.928
			c-0.026-0.104-0.052-0.208-0.073-0.314c-0.076-0.388-0.128-0.784-0.128-1.189c0-3.481,2.832-6.313,6.313-6.313
			c3.481,0,6.313,2.832,6.313,6.313c0,1.162,0.942,2.104,2.104,2.104s2.356-0.942,2.356-2.104c0-5.081-4.166-9.332-8.166-10.309
			V13.146c0-2.207,1.293-3.146,3.501-3.146h88.797c2.207,0,4.702,0.939,4.702,3.146V103H466.915z"/>
	</g>
	<g>
		<path d="M160.539,70.87h25.669l-1.25-0.946l-6.851-6.286h4.316l8.631,7.838v1.742l-8.594,7.836h-4.316l6.814-6.247l1.25-0.908
			h-25.669V70.87z"/>
	</g>
	<g>
		<path d="M383.608,70.87h25.669l-1.25-0.946l-6.851-6.286h4.316l8.631,7.838v1.742l-8.594,7.836h-4.316l6.814-6.247l1.25-0.908
			h-25.669V70.87z"/>
	</g>
</g>
</svg>
