<?xml version="1.0" encoding="utf-8"?>
<!-- Generator: Adobe Illustrator 19.1.0, SVG Export Plug-In . SVG Version: 6.00 Build 0)  -->
<svg version="1.1" id="Layer_1" xmlns="http://www.w3.org/2000/svg" xmlns:xlink="http://www.w3.org/1999/xlink" x="0px" y="0px"
	 viewBox="0 0 266 61" style="enable-background:new 0 0 266 61;" xml:space="preserve">
<style type="text/css">
	.st0{fill:none;stroke:#1500A2;stroke-width:2;stroke-linecap:round;stroke-miterlimit:10;}
	.st1{fill:none;stroke:#1500A2;stroke-width:2;stroke-miterlimit:10;}
	.st2{fill:none;stroke:#1500A2;stroke-width:2;stroke-linecap:round;stroke-miterlimit:10;stroke-dasharray:2,4,2,4,2,4;}
	.st3{fill:none;stroke:#1500A2;stroke-width:2;stroke-linecap:round;stroke-linejoin:round;stroke-miterlimit:10;}
	.st4{fill:#1500A2;}
	.st5{fill:none;stroke:#1500A2;stroke-width:4;stroke-miterlimit:10;}
</style>
<g>
	<path d="M45.254,35h-32c-0.552,0-1,0.448-1,1s0.448,1,1,1h32c0.552,0,1-0.448,1-1S45.807,35,45.254,35z"/>
	<path d="M45.254,41h-32c-0.552,0-1,0.448-1,1s0.448,1,1,1h32c0.552,0,1-0.448,1-1S45.807,41,45.254,41z"/>
	<path d="M13.254,31h9c0.552,0,1-0.448,1-1s-0.448-1-1-1h-9c-0.552,0-1,0.448-1,1S12.702,31,13.254,31z"/>
	<path d="M30.254,31h3c0.552,0,1-0.448,1-1s-0.448-1-1-1h-3c-0.552,0-1,0.448-1,1S29.702,31,30.254,31z"/>
	<path d="M26.25,31.02c0.27,0,0.53-0.11,0.71-0.29c0.19-0.19,0.29-0.45,0.29-0.71c0-0.26-0.1-0.52-0.29-0.71
		c-0.37-0.37-1.04-0.37-1.41,0c-0.19,0.19-0.3,0.45-0.3,0.71c0,0.26,0.11,0.52,0.3,0.71C25.73,30.91,25.99,31.02,26.25,31.02z"/>
	<path d="M55,55V17H5v38H55z M7,19h46v34H7V19z"/>
	<path d="M7.254,3.021c-2.206,0-4,1.794-4,4s1.794,4,4,4s4-1.794,4-4S9.46,3.021,7.254,3.021z M7.254,9.021c-1.103,0-2-0.897-2-2
		s0.897-2,2-2s2,0.897,2,2S8.357,9.021,7.254,9.021z"/>
	<path d="M16.254,3.021c-2.206,0-4,1.794-4,4s1.794,4,4,4s4-1.794,4-4S18.46,3.021,16.254,3.021z M16.254,9.021
		c-1.103,0-2-0.897-2-2s0.897-2,2-2s2,0.897,2,2S17.357,9.021,16.254,9.021z"/>
	<path d="M25.254,3.021c-2.206,0-4,1.794-4,4s1.794,4,4,4s4-1.794,4-4S27.46,3.021,25.254,3.021z M25.254,9.021
		c-1.103,0-2-0.897-2-2s0.897-2,2-2s2,0.897,2,2S26.357,9.021,25.254,9.021z"/>
	<path d="M0,14.021V60h60V14.021V0H0V14.021z M58,58H2V14h56V58z M2,2h56v10H2V2z"/>
	<path d="M158,1h-42v17h-9v34h6v3h3v6h42v-6h3v-3h6V18h-9V1z M118,3h38v15h-38V3z M115,53v-1.979v-1v-4c0-0.552-0.448-1-1-1
		s-1,0.448-1,1V50h-4V38h7v15H115z M156,59h-38v-3.979V38h38v17.021V59z M161,50v-3.979c0-0.552-0.448-1-1-1s-1,0.448-1,1v4v1V53h-1
		V38h7v12H161z M165,20v16h-56V20h7.017h42H165z"/>
	<path d="M157.017,33.021c2.757,0,5-2.243,5-5s-2.243-5-5-5s-5,2.243-5,5S154.26,33.021,157.017,33.021z M157.017,25.021
		c1.654,0,3,1.346,3,3s-1.346,3-3,3s-3-1.346-3-3S155.362,25.021,157.017,25.021z"/>
	<path d="M149.017,44h-24c-0.552,0-1,0.448-1,1s0.448,1,1,1h24c0.552,0,1-0.448,1-1S149.569,44,149.017,44z"/>
	<path d="M149.017,49h-24c-0.552,0-1,0.448-1,1s0.448,1,1,1h24c0.552,0,1-0.448,1-1S149.569,49,149.017,49z"/>
	<path d="M219.767,55c0,0.552,0.448,1,1,1h5c0.552,0,1-0.448,1-1s-0.448-1-1-1h-5C220.215,54,219.767,54.448,219.767,55z"/>
	<path d="M229.767,56h28c0.552,0,1-0.448,1-1s-0.448-1-1-1h-28c-0.552,0-1,0.448-1,1S229.215,56,229.767,56z"/>
	<path d="M261.865,3h-42.195C217.518,3,216,4.271,216,6.423V16c0,0-0.235,0-0.236,0c-0.018,0-0.034-0.177-0.052-0.174
		c-0.288,0.062-0.566,0.055-0.833,0.165c-0.095,0.039-0.182,0.044-0.274,0.089c-0.183,0.089-0.363,0.157-0.533,0.266
		c-0.099,0.064-0.19,0.125-0.284,0.195c-0.149,0.112-0.294,0.221-0.43,0.349c-0.089,0.084-0.172,0.168-0.255,0.258
		c-0.124,0.134-0.239,0.273-0.348,0.42c-0.073,0.098-0.143,0.196-0.209,0.3c-0.1,0.158-0.186,0.323-0.268,0.493
		c-0.052,0.107-0.106,0.21-0.15,0.32c-0.076,0.192-0.132,0.391-0.185,0.593c-0.026,0.099-0.061,0.194-0.08,0.296
		c-0.06,0.308-0.096,0.624-0.096,0.95c0,0.242,0.024,0.481,0.06,0.717c0.008,0.057,0.018,0.114,0.028,0.171
		c0.043,0.233,0.097,0.463,0.173,0.686c0.005,0.015,0.013,0.03,0.018,0.045c0.074,0.211,0.165,0.414,0.266,0.614
		c0.026,0.052,0.052,0.102,0.08,0.153c0.114,0.207,0.24,0.408,0.383,0.598c0.003,0.005,0.006,0.01,0.009,0.015
		c-0.01,0.013-0.016,0.028-0.026,0.04c-0.114,0.154-0.213,0.315-0.309,0.482c-0.057,0.098-0.111,0.196-0.161,0.297
		c-0.072,0.147-0.137,0.294-0.194,0.448c-0.057,0.15-0.1,0.303-0.142,0.457c-0.033,0.124-0.071,0.245-0.094,0.373
		c-0.056,0.296-0.091,0.597-0.091,0.902c0,0.242,0.024,0.481,0.06,0.717c0.008,0.057,0.018,0.114,0.028,0.171
		c0.043,0.233,0.097,0.463,0.173,0.686c0.005,0.015,0.013,0.03,0.018,0.045c0.074,0.211,0.165,0.414,0.266,0.614
		c0.026,0.052,0.052,0.102,0.08,0.153c0.114,0.207,0.24,0.408,0.383,0.598c0.003,0.005,0.006,0.01,0.009,0.015
		c-0.01,0.013-0.016,0.028-0.026,0.04c-0.114,0.154-0.213,0.315-0.309,0.482c-0.057,0.098-0.111,0.196-0.161,0.297
		c-0.072,0.147-0.137,0.294-0.194,0.448c-0.057,0.15-0.1,0.303-0.142,0.457c-0.033,0.124-0.071,0.245-0.094,0.373
		c-0.056,0.296-0.091,0.597-0.091,0.902c0,0.242,0.024,0.481,0.06,0.717c0.008,0.057,0.018,0.114,0.028,0.171
		c0.043,0.233,0.097,0.463,0.173,0.686c0.005,0.015,0.013,0.03,0.018,0.045c0.074,0.211,0.165,0.414,0.266,0.614
		c0.026,0.052,0.052,0.102,0.08,0.153c0.114,0.207,0.24,0.408,0.383,0.598c0.003,0.005,0.006,0.01,0.009,0.015
		c-0.01,0.013-0.016,0.028-0.026,0.04c-0.114,0.154-0.213,0.315-0.309,0.482c-0.057,0.098-0.111,0.196-0.161,0.297
		c-0.072,0.147-0.137,0.294-0.194,0.448c-0.057,0.15-0.1,0.303-0.142,0.457c-0.033,0.124-0.071,0.245-0.094,0.373
		c-0.056,0.296-0.091,0.597-0.091,0.902c0,0.325,0.036,0.642,0.096,0.95c0.02,0.102,0.055,0.197,0.08,0.296
		c0.052,0.202,0.108,0.402,0.185,0.594c0.044,0.111,0.098,0.214,0.15,0.321c0.082,0.17,0.168,0.335,0.268,0.494
		c0.066,0.104,0.136,0.202,0.209,0.301c0.109,0.147,0.224,0.287,0.348,0.422c0.083,0.09,0.166,0.177,0.255,0.261
		c0.136,0.127,0.28,0.243,0.43,0.354c0.094,0.07,0.185,0.143,0.284,0.207c0.17,0.109,0.35,0.201,0.533,0.29
		c0.092,0.045,0.179,0.097,0.274,0.136c0.267,0.11,0.545-0.013,0.833,0.05c0.018,0.004,0.034-0.194,0.052-0.194
		c0.001,0,0.236,0,0.236,0v11.521c0,3.309,2.458,6.479,5.767,6.479H266V50.521v-2V6.423C266,4.271,264.017,3,261.865,3z M264,52
		h-3.233c-0.552,0-1,0.448-1,1s0.448,1,1,1H264v2h-3.233c-0.552,0-1,0.448-1,1s0.448,1,1,1H264v1h-42.233c-2.206,0-4-1.794-4-4
		s1.794-4,4-4H264V52z M221.767,49c-0.362,0-0.715-0.202-1.059-0.14c-0.031,0.005-0.062-0.112-0.092-0.106
		c-0.327,0.064-0.642,0.098-0.947,0.213c-0.042,0.016-0.084-0.001-0.125,0.016c-0.295,0.118-0.577,0.246-0.847,0.408
		c-0.043,0.026-0.086,0.043-0.128,0.07c-0.264,0.167-0.397,0.35-0.631,0.555C217.921,50.03,218,50.037,218,50.052v-7.532v-1v-2
		c0-0.552-0.448-1-1-1s-1,0.448-1,1v1.816c-1-0.414-2.116-1.514-2.116-2.816c0-0.212-0.035-0.421,0.009-0.623
		c0.007-0.033-0.008-0.063,0.001-0.095c0.043-0.172,0.08-0.341,0.154-0.502c0.006-0.013,0.007-0.024,0.012-0.036
		c0.175-0.369,0.423-0.706,0.749-0.99c0.282-0.246,0.705-0.521,1.255-0.66c0.026-0.006,0.05-0.018,0.076-0.024
		c0.194-0.043,0.403-0.069,0.628-0.069c0.225,0,0.433,0.026,0.627,0.068c0.03,0.006,0.057,0.02,0.087,0.027
		c0.545,0.14,0.967,0.412,1.247,0.657c0.004,0.004,0.01,0.005,0.014,0.008c0.622,0.55,1.023,1.345,1.023,2.239c0,0.552,0.448,1,1,1
		s1-0.448,1-1c0-1.489-0.667-2.813-1.703-3.73c-0.007-0.007-0.01-0.017-0.018-0.023c-0.032-0.028-0.068-0.048-0.1-0.074
		c-0.867-0.721-1.965-1.173-3.178-1.173c-0.611,0-1.189,0.126-1.731,0.327c-0.019,0.007-0.038,0.011-0.057,0.018
		c-0.185,0.071-0.359,0.161-0.533,0.253c-0.048,0.026-0.1,0.043-0.148,0.07c-0.093-0.134-0.181-0.271-0.25-0.417
		c-0.015-0.031-0.025-0.064-0.038-0.096c-0.061-0.143-0.11-0.29-0.148-0.441c-0.012-0.049-0.025-0.099-0.034-0.149
		c-0.036-0.185-0.061-0.372-0.061-0.565c0-0.212,0.023-0.421,0.067-0.623c0.007-0.033,0.022-0.063,0.03-0.095
		c0.043-0.172,0.095-0.341,0.169-0.502c0.006-0.013,0.014-0.024,0.02-0.036c0.175-0.369,0.427-0.706,0.752-0.99
		c0.282-0.246,0.707-0.521,1.257-0.66c0.026-0.006,0.05-0.018,0.077-0.024c0.194-0.043,0.403-0.069,0.628-0.069
		c0.225,0,0.434,0.026,0.628,0.068c0.03,0.006,0.058,0.02,0.087,0.027c0.545,0.14,0.967,0.412,1.247,0.657
		c0.004,0.004,0.01,0.005,0.015,0.008c0.622,0.55,1.023,1.345,1.023,2.239c0,0.552,0.448,1,1,1s1-0.448,1-1
		c0-1.489-0.667-2.813-1.703-3.73c-0.007-0.007-0.01-0.017-0.018-0.023c-0.032-0.028-0.068-0.048-0.1-0.074
		c-0.867-0.721-1.965-1.173-3.178-1.173c-0.613,0-1.194,0.126-1.737,0.329c-0.016,0.006-0.034,0.009-0.05,0.016
		c-0.186,0.072-0.359,0.161-0.534,0.254c-0.048,0.026-0.1,0.043-0.148,0.07c-0.093-0.134-0.181-0.271-0.25-0.417
		c-0.015-0.031-0.025-0.064-0.038-0.096c-0.061-0.143-0.11-0.29-0.148-0.441c-0.012-0.049-0.025-0.099-0.034-0.149
		c-0.036-0.185-0.061-0.372-0.061-0.565c0-0.212,0.023-0.421,0.067-0.623c0.007-0.033,0.022-0.063,0.03-0.095
		c0.043-0.172,0.095-0.341,0.169-0.502c0.006-0.013,0.014-0.024,0.02-0.036c0.175-0.369,0.427-0.706,0.752-0.99
		c0.282-0.246,0.707-0.521,1.257-0.66c0.026-0.006,0.05-0.018,0.077-0.024c0.194-0.043,0.403-0.069,0.628-0.069
		c0.225,0,0.434,0.026,0.628,0.068c0.03,0.006,0.058,0.02,0.087,0.027c0.545,0.14,0.967,0.412,1.247,0.657
		c0.004,0.004,0.01,0.005,0.014,0.008c0.622,0.55,1.023,1.345,1.023,2.239c0,0.552,0.448,1,1,1s1-0.448,1-1
		c0-1.489-0.667-2.813-1.703-3.73c-0.007-0.007-0.01-0.017-0.018-0.023c-0.032-0.028-0.068-0.047-0.1-0.074
		c-0.867-0.721-1.966-1.173-3.179-1.173c-0.613,0-1.194,0.126-1.737,0.329c-0.016,0.006-0.033,0.009-0.049,0.015
		c-0.186,0.072-0.359,0.161-0.534,0.254c-0.048,0.026-0.1,0.043-0.148,0.07c-0.093-0.134-0.181-0.271-0.25-0.417
		c-0.015-0.031-0.025-0.064-0.038-0.096c-0.061-0.143-0.11-0.29-0.148-0.441c-0.012-0.049-0.025-0.099-0.034-0.149
		c-0.036-0.185-0.061-0.372-0.061-0.565c0-1.654,1.346-3,3-3s3,1.346,3,3c0,0.552,0.448,1,1,1s1.116-0.448,1.116-1
		c0-2.414-1.884-4.434-3.884-4.899V6.423C218,5.374,218.621,5,219.669,5h42.195C262.914,5,264,5.374,264,6.423V49H221.767z"/>
</g>
<g>
	<path d="M76.181,33.853h12.198l-0.594-0.45l-3.256-2.987h2.051l4.102,3.724v0.828l-4.084,3.724h-2.051l3.238-2.969l0.594-0.431
		H76.181V33.853z"/>
</g>
<g>
	<path d="M182.181,33.853h12.198l-0.594-0.45l-3.256-2.987h2.051l4.102,3.724v0.828l-4.084,3.724h-2.051l3.238-2.969l0.594-0.431
		h-12.198V33.853z"/>
</g>
</svg>
